<svg version="1.0" xmlns="http://www.w3.org/2000/svg" width="370px" height="145px" viewBox="0 0 370 145" preserveAspectRatio="xMidYMid meet">
 <g fill="#000000">
  
  <path d="M84.2 119.8 c-1.7 -1.7 -1.7 -41.9 0 -43.6 0.7 -0.7 3.3 -1.2 5.8 -1.2 6.6 0 7 1.3 7 22.8 0 21.2 -0.5 22.6 -7 23 -2.6 0.2 -5 -0.2 -5.8 -1z" data-index="1" style="opacity: 1; visibility: hidden; fill: rgb(121, 40, 202);"></path>
  
 </g>
 <g fill="#ffffff">
  <path d="M81.5 125.7 c-8 -3.8 -10 -10.6 -9.3 -32.2 0.5 -15.7 1.6 -19.2 7.1 -22.6 2.7 -1.7 4.6 -1.9 11.4 -1.7 7.5 0.3 8.4 0.5 11.3 3.3 4.4 4.2 5.2 8.6 4.8 27.4 -0.3 18.1 -1.1 21.1 -6.4 24.6 -3.7 2.4 -14.8 3.1 -18.9 1.2z m11.2 -10.7 c1.7 -3.3 1.8 -30.9 0.1 -34.5 -1.2 -2.7 -3.6 -3.3 -5.6 -1.3 -1.7 1.7 -1.7 35.9 0 37.6 1.8 1.8 4.1 1.1 5.5 -1.8z" data-index="3" style="opacity: 1;"></path>
  <path d="M43 97.5 l0 -28.5 6.5 0 6.5 0 0 24 0 24 6.5 0 6.5 0 0 4.5 0 4.5 -13 0 -13 0 0 -28.5z" data-index="4"></path>
  <path d="M112 97.5 l0 -28.5 7 0 7 0 0 28.5 0 28.5 -7 0 -7 0 0 -28.5z" data-index="5" style="visibility: visible; opacity: 1;"></path>
  <path d="M130 125.3 c0 -1.3 10 -53.7 10.5 -55 0.3 -0.9 2.7 -1.3 7.4 -1.3 5.8 0 7.1 0.3 7.5 1.8 0.2 0.9 2.5 13 5.1 26.7 2.5 13.8 4.8 25.8 5.1 26.8 0.5 1.6 -0.1 1.8 -5.8 1.5 l-6.3 -0.3 -0.9 -5.7 -0.8 -5.8 -3.8 0 c-3.7 0 -3.8 0.1 -4.5 4.3 -1.2 7.9 -1.1 7.7 -7.6 7.7 -3.2 0 -5.9 -0.3 -5.9 -0.7z m19.5 -26.5 c-0.4 -4 -1 -7.7 -1.5 -8.1 -0.4 -0.4 -1.1 2.8 -1.6 7.2 l-1 8.1 2.4 0 c2.4 0 2.4 -0.1 1.7 -7.2z" data-index="6" style="opacity: 1;"></path>
  <path d="M170 97.5 l0 -28.5 6.5 0 6.5 0 0 24 0 24 6.5 0 6.5 0 0 4.5 0 4.5 -13 0 -13 0 0 -28.5z" data-index="7" style="opacity: 1;"></path>
  <path d="M203 102.5 l0 -23.5 -4.5 0 -4.5 0 0 -5 0 -5 15 0 15 0 0 5 0 5 -4 0 -4 0 0 23.5 0 23.5 -6.5 0 -6.5 0 0 -23.5z" data-index="8" style="visibility: visible; opacity: 1;"></path>
 </g>
 <g fill="#c31320">
  <path d="M277 126.2 c0 -0.5 0.7 -2.6 1.5 -4.5 2.2 -5.3 1.9 -11.1 -1 -16.6 -3.9 -7.8 -13.2 -12.3 -21 -10.1 -7.9 2.2 -15.4 10.8 -15.5 17.8 0 1.2 -0.4 2.2 -0.9 2.2 -1.7 0 0.1 -8.5 2.8 -13 4 -6.6 10.1 -10.1 18.2 -10.1 7.7 -0.1 11.3 1.2 15.7 5.4 5.5 5.3 7.5 10.2 7.4 18 l-0.2 6.7 28.2 0 c29.8 0 45.3 -1.2 47.8 -3.6 0.9 -0.9 1.6 -3.7 1.7 -7.2 0.1 -3.1 0.5 -9.5 0.8 -14.2 0.6 -9.3 0 -11.2 -3.6 -11.1 -16.3 0.4 -15.4 0.6 -25.3 -4.3 -11.5 -5.7 -14.7 -8.1 -13.9 -10.3 0.5 -1.3 2.1 -1.5 11.2 -1 5.8 0.3 13.3 1.2 16.5 2.1 5.3 1.5 7.8 1.5 6.4 0.1 -0.3 -0.3 -3.6 -1.7 -7.4 -3.1 -22.1 -8.2 -29.3 -9.5 -63.3 -11.4 l-15.4 -0.9 -9.3 -4.6 c-5.2 -2.5 -18.4 -9.6 -29.6 -15.7 -19.8 -10.9 -25.9 -13.7 -32.8 -15.2 -12.8 -2.7 -25.3 -3.7 -52 -4.3 -30.5 -0.6 -56.7 0.6 -88.5 4 -1.6 0.2 -4.5 0.4 -6.2 0.5 -2.7 0.2 -3.2 0.6 -3 2.3 0.2 2.1 -10.5 12.6 -24.8 24.6 l-5 4.1 0 10.5 c0 10.4 0 10.5 -3.4 14.7 -3.3 4.1 -3.4 4.4 -2.8 11.4 0.4 4.2 0.2 8.6 -0.5 10.9 -1.8 6 0.3 11.1 6 14.8 2.5 1.6 5.6 2.9 6.9 2.9 1.3 0 2.3 0.4 2.3 0.9 0 0.5 1 1.2 2.3 1.6 l2.2 0.8 -2.4 0.4 c-3.6 0.7 -14.6 -4.4 -18.1 -8.3 -2.9 -3.4 -2.9 -3.5 -3 -16.1 0 -7.1 0 -13.9 0 -15.3 0 -1.4 1.4 -4.4 3 -6.7 2.8 -3.9 3 -4.7 3 -14 0.1 -6.2 0.5 -10.4 1.3 -11.3 0.7 -0.8 5.6 -4.8 11 -8.9 14.5 -10.9 19.6 -15.8 19 -18 -0.6 -2.2 0.6 -2.7 9.2 -3.6 3.3 -0.3 7.8 -0.8 10 -1.1 71.5 -7.9 116.1 -8.5 140.9 -1.9 6.5 1.7 23.8 10.4 38.6 19.5 2.5 1.5 9.7 5.6 16 9.2 l11.5 6.5 12 1.2 c22.4 2.3 30.7 3.5 42.5 6.3 18.3 4.3 40.7 15.2 38.6 18.7 -0.8 1.2 -6 0.7 -8.1 -0.8 -2.1 -1.5 -9.3 -3 -17.4 -3.7 -9.8 -0.8 -10.1 0.1 -1.3 4.2 12.7 5.9 13.5 6.1 19.8 5.6 9.7 -0.7 9.8 -0.4 9 19.8 -0.8 18.9 -1 19.4 -9.4 20.5 -2.6 0.4 -6.9 1 -9.7 1.5 -7.4 1.3 -68.5 2.4 -68.5 1.2z" data-index="9" style="opacity: 1;"></path>
 </g>
 <g fill="#d70b1a">
  <path d="M281.6 125.4 c-0.4 -0.9 -0.4 -1.9 -0.2 -2.1 0.8 -0.8 2.6 0.8 2.6 2.3 0 1.9 -1.6 1.8 -2.4 -0.2z" data-index="10"></path>
  <path d="M300.5 126 c-1.4 -2.3 1.1 -3 10.6 -3 7.7 0 9.9 0.3 9.9 1.4 0 0.8 -1.5 1.6 -3.7 2 -5.9 0.9 -16.1 0.7 -16.8 -0.4z" data-index="11"></path>
  <path d="M322.5 72.9 c-1.2 -1.9 0.3 -2.2 2.7 -0.5 l2.2 1.6 -2.1 0 c-1.2 0 -2.5 -0.5 -2.8 -1.1z" data-index="12"></path>
  <path d="M262 52.4 c0 -0.6 -1.1 -1.6 -2.5 -2.2 -3.4 -1.6 -3.8 -1.5 -3.1 0.4 0.5 1.4 0.4 1.5 -0.9 0.4 -0.8 -0.7 -1.5 -1.9 -1.5 -2.6 0 -1.7 -1.7 -1.8 -2.3 -0.1 -0.4 0.7 -0.8 0.3 -1.2 -1 -0.8 -2.5 -2.1 -3 -2.8 -1 -0.2 0.7 -1.5 0 -3.5 -2.1 -1.7 -1.9 -3.6 -3.1 -4.1 -2.8 -0.5 0.3 -1.2 -0.2 -1.5 -1.1 -0.6 -1.4 -0.9 -1.5 -1.5 -0.4 -0.7 1 -1.2 0.8 -2.3 -0.8 -0.8 -1.1 -1.8 -1.8 -2.1 -1.4 -0.4 0.3 -0.7 0 -0.7 -0.8 0 -1.1 -0.2 -1.1 -1 0.1 -0.8 1.3 -1 1.2 -1 -0.3 0 -1 -0.4 -1.6 -0.9 -1.3 -0.5 0.3 -1.1 -0.1 -1.5 -0.9 -0.3 -0.8 -1.2 -1.2 -2 -0.9 -0.8 0.3 -2.3 -0.3 -3.4 -1.4 -1.1 -1.1 -2.3 -1.8 -2.6 -1.5 -0.3 0.4 -0.6 -0.1 -0.6 -1 0 -1 -0.8 -1.8 -1.7 -1.8 -3.9 -0.3 -4.4 -0.5 -5.3 -1.9 -0.5 -0.8 -1 -1.1 -1 -0.7 0 0.5 -0.7 0.2 -1.5 -0.6 -0.8 -0.9 -2.4 -1.3 -3.5 -1 -1.2 0.3 -2 0 -2 -0.8 0 -0.7 -0.3 -0.9 -0.7 -0.6 -0.3 0.4 -1.2 -0.1 -1.9 -1.1 -1.2 -1.5 -1.5 -1.5 -2.4 -0.2 -0.8 1.3 -1 1.3 -1 -0.1 0 -1.9 -6.3 -3.6 -6.8 -1.9 -0.6 1.6 -3.2 1.2 -3.2 -0.5 0 -1.8 -4 -2 -4 -0.2 0 0.6 -0.5 0.4 -1.1 -0.6 -1.2 -2 -4.4 -2.4 -3.6 -0.3 0.7 1.8 -3.5 0.9 -4.6 -1.1 -0.9 -1.4 -7.3 -1.8 -7.9 -0.4 -0.1 0.4 -1.3 1.1 -2.4 1.5 -1.7 0.5 -2.2 0.2 -2.6 -1.8 -0.5 -2.4 -0.4 -2.5 7.6 -2.8 4.5 -0.2 8.6 0 9.2 0.4 0.6 0.5 3.3 0.8 6 0.9 8.9 0 10.3 0.2 9.9 0.9 -0.3 0.4 2.1 1.1 5.3 1.5 8.6 1 10.6 1.6 9 2.6 -0.9 0.6 -0.5 0.9 1.4 0.9 2.8 0 12.8 4.7 12.8 6.1 0 0.4 1.4 1 3 1.4 1.7 0.4 2.8 1 2.5 1.5 -0.3 0.5 1.1 1.4 3 2 1.9 0.6 3.3 1.5 3 2 -0.6 1 3.4 2.5 4.2 1.6 0.4 -0.3 2 0.5 3.7 1.8 1.7 1.3 4.2 2.7 5.5 3.1 1.8 0.5 2.1 0.9 1 1.6 -1.1 0.7 -0.9 0.9 0.7 0.9 1.2 0 2.4 0.6 2.7 1.4 0.3 0.8 1.8 1.6 3.4 1.8 1.5 0.2 2.7 0.8 2.6 1.5 -0.3 1.4 3.2 2.7 4.7 1.8 0.5 -0.3 1 0.1 1 0.9 0 0.9 1.5 2.2 3.3 3 l3.2 1.4 -4.2 -0.1 c-2.4 -0.1 -4.3 -0.7 -4.3 -1.3z" data-index="13" style="opacity: 1;"></path>
 </g>
</svg>