<svg version="1.0" xmlns="http://www.w3.org/2000/svg" width="136px" height="438px" viewBox="0 0 136 438" preserveAspectRatio="xMidYMid meet">
 <g fill="#fffdf1">
  <path d="M6.5 258.8 l-3 -3.3 0.1 -44 c0.1 -44.7 1 -60.2 5 -87.5 7.6 -51.8 22.1 -94.2 38.2 -111.2 8.9 -9.4 15.1 -12.3 25.7 -12.2 6.1 0.1 9.1 0.6 12.7 2.3 19.8 9.5 37.4 45.5 48.3 99 2.4 12 2.5 13.5 2.5 53.2 l0 40.8 -8.2 7.1 c-7.3 6.2 -8.8 7 -12.4 7 l-4 0 -1.7 -22.2 c-2.1 -26.6 -3.5 -38.8 -4.8 -40.4 -0.5 -0.6 -1.2 -4 -1.5 -7.5 -0.4 -3.5 -1.1 -6.9 -1.5 -7.5 -0.5 -0.6 -1.2 -3.3 -1.5 -6 -0.8 -6 -3.1 -14.6 -5 -18.2 -0.8 -1.5 -1.4 -3.5 -1.4 -4.5 0 -1.7 -0.3 -2.5 -3.4 -8.4 -0.9 -1.7 -1.6 -3.7 -1.6 -4.4 0 -1.8 -8.9 -15.8 -12.9 -20.2 -4.1 -4.6 -9.9 -7.7 -14.1 -7.7 -2.4 0 -4.5 1.2 -8.7 5.3 -6.9 6.5 -11.3 13.2 -15.4 23.4 -1.7 4.3 -3.4 8.3 -3.8 8.8 -1.3 1.7 -4.1 10.7 -4.1 13.3 0 1.3 -0.6 3.8 -1.4 5.5 -1.9 4.5 -3.6 12.1 -3.6 16 0 1.8 -0.4 3.7 -0.9 4.2 -1 1.2 -1.8 6.6 -2.7 18.5 -0.4 4.7 -1 9 -1.4 9.5 -1.5 2.1 -2.5 27.1 -2.3 60.3 l0.3 34.2 -4.3 0 c-3.5 0 -4.8 -0.6 -7.2 -3.2z" data-index="0" style="opacity: 1;"></path>
  <path d="M34.5 223.6 c-2.2 -0.7 -5.5 -2.1 -7.4 -3 l-3.4 -1.8 0.6 -15.7 c1.7 -41.2 11.3 -73.1 23.9 -79.7 3.1 -1.6 11.5 -1.9 15.1 -0.5 7.2 2.8 14.9 16.6 19.7 35.3 4.6 18.2 6.4 36.8 3.7 36.8 -0.7 0 -4.8 3.8 -9.1 8.6 -7.6 8.3 -7.9 8.5 -11.9 8.2 l-4.1 -0.3 -1.2 -7 c-1.7 -9.9 -3.1 -14.6 -5.4 -17.5 -2.3 -2.9 -3 -2.3 -5.6 5 -0.9 2.5 -2 5.4 -2.5 6.5 -0.4 1.1 -1.1 7.5 -1.5 14.3 l-0.6 12.2 -3.2 -0.1 c-1.7 0 -4.9 -0.6 -7.1 -1.3z" data-index="1"></path>
 </g>
 <g fill="#f4e3d7">
  <path d="M58.9 435.2 c-5.9 -3.8 -13.6 -12.3 -18.2 -19.9 -17.5 -28.9 -31.7 -85.7 -35.7 -142.3 -1.4 -19.9 -1.3 -22 0.5 -22 0.8 0 1.5 0.4 1.5 0.9 0 1.5 5.3 7.1 6.7 7.1 0.8 0 1.3 -1.2 1.3 -3 0 -2.3 0.4 -3 2 -3 1.7 0 2 0.7 2 4.5 0 4.1 0.5 8.4 3.1 25.5 5.8 38.4 17.2 71.3 29.5 84.8 10.4 11.6 15.9 12 25.8 1.8 6 -6 11 -14.6 15.7 -27 1.1 -2.8 2.4 -6 2.8 -7.1 0.5 -1.1 2.3 -6.9 4 -13 2.7 -9.9 4 -16.3 7.2 -34.5 1.9 -11.5 3.2 -29.5 3.8 -55.9 0.4 -20.6 0.9 -27.5 1.9 -27.9 0.6 -0.2 1.2 0.3 1.2 1.2 0 3 2.5 1.6 11.3 -5.9 4.8 -4.1 9.1 -7.5 9.7 -7.5 0.7 0 1 23.8 1 70.9 0 67.2 -0.1 71.4 -2 80.7 -9.4 45.9 -24.1 78.5 -40.8 90.5 l-5.5 3.9 -12.2 0 c-11.6 0 -12.3 -0.1 -16.6 -2.8z" data-index="2" style="opacity: 1;"></path>
  <path d="M46.2 314.4 c-11.7 -10 -20.5 -43.1 -21.9 -82.5 -0.5 -13.3 -0.3 -16.8 0.7 -17.4 0.9 -0.5 1.5 -0.4 1.8 0.3 0.5 1.5 6.4 4.6 11.2 5.9 3.4 1 3.6 0.9 3.5 -1.6 0 -1.6 0.6 -2.7 1.8 -2.9 1.5 -0.3 1.7 0.6 1.7 8 0 9.2 1.8 17.4 5.5 25.6 2.6 5.7 3.4 6.2 5.3 3.2 4.2 -6.8 7.2 -21.9 7.2 -36.9 0 -9.6 0.1 -10.3 1.5 -8.5 1.5 1.8 1.9 1.5 9.8 -6.8 4.5 -4.9 8.8 -8.8 9.5 -8.8 0.6 0 1.2 -0.7 1.2 -1.5 0 -2 2.6 -1.9 3.4 0.2 0.4 0.9 0.9 14.1 1.3 29.2 0.4 22.8 0.3 29.7 -1.1 39.6 -1 6.6 -2.1 12.4 -2.5 13 -0.5 0.5 -1.1 3.8 -1.4 7.2 -0.4 3.5 -1.1 7.1 -1.7 8 -0.5 1 -2.3 5.4 -4 9.8 -3.2 8.6 -9.1 17.2 -13 19.2 -1.4 0.7 -5.5 1.3 -9.1 1.3 -6.1 0 -6.8 -0.3 -10.7 -3.6z" data-index="3"></path>
  <path d="M15.4 178.8 c0.2 -1.8 0.4 -3.9 0.5 -4.5 0 -0.7 0.8 -1.3 1.6 -1.3 1.1 0 1.5 1.2 1.5 4.5 0 3.8 -0.3 4.5 -1.9 4.5 -1.6 0 -1.9 -0.6 -1.7 -3.2z" data-index="4"></path>
  <path d="M107 159 c0 -2.9 0.4 -4 1.5 -4 0.8 0 1.6 0.6 1.6 1.3 0.1 0.6 0.3 2.4 0.5 4 0.2 2.1 -0.1 2.7 -1.7 2.7 -1.6 0 -1.9 -0.7 -1.9 -4z" data-index="5"></path>
  <path d="M33 150.3 c0 -4.3 1.1 -7.3 2.6 -7.3 0.9 0 1.4 -1.2 1.4 -3.5 0 -3.1 0.3 -3.5 2.6 -3.5 1.4 0 2.4 0.3 2.2 0.8 -2.2 4.4 -3.9 8.4 -5 11.6 -1.6 4.8 -3.8 5.9 -3.8 1.9z" data-index="6"></path>
  <path d="M29.3 101.5 c0.6 -1.9 1.6 -3.5 2.4 -3.5 0.8 0 1.3 1.3 1.3 3.5 0 3 -0.3 3.5 -2.4 3.5 -2.3 0 -2.4 -0.2 -1.3 -3.5z" data-index="7"></path>
  <path d="M33 36.5 c0 -3.1 0.3 -3.5 2.5 -3.5 2.9 0 3 0.2 1 4 -2.1 4 -3.5 3.8 -3.5 -0.5z" data-index="8"></path>
 </g>
 <g fill="#e7e5d9">
  <path d="M96 337.5 c0 -2.8 0.4 -3.5 2 -3.5 2.3 0 2.6 2.6 0.6 5.3 -2 2.5 -2.6 2.1 -2.6 -1.8z" data-index="9"></path>
  <path d="M102 316.4 c0 -1.5 0.5 -5.5 1.2 -9 0.9 -5.3 1.5 -6.4 3.1 -6.4 2.1 0 2.1 1.5 -0.4 13 -1.2 5.4 -3.9 7.1 -3.9 2.4z" data-index="10"></path>
  <path d="M22.6 307.8 c-1.1 -4.2 -0.7 -5.8 1.4 -5.8 1.7 0 2 0.7 2 4 0 4.5 -2.3 5.7 -3.4 1.8z" data-index="11"></path>
  <path d="M20.6 296.8 c-1.1 -4.2 -0.7 -5.8 1.4 -5.8 1.7 0 2 0.7 2 4 0 4.5 -2.3 5.7 -3.4 1.8z" data-index="12"></path>
  <path d="M106 295.8 c0 -1.3 0.5 -6.7 1.2 -12 1 -8.3 1.5 -9.8 3 -9.8 2.4 0 2.3 2.6 -0.7 20.8 -0.7 3.7 -3.5 4.5 -3.5 1z" data-index="13"></path>
  <path d="M18.6 284.8 c-1.2 -4.5 -0.7 -6.8 1.4 -6.8 1.7 0 2 0.7 2 4.5 0 4.9 -2.3 6.4 -3.4 2.3z" data-index="14"></path>
  <path d="M82 272.8 c0.1 -2.3 2.1 -5.8 3.4 -5.8 0.3 0 0.6 1.8 0.6 4 0 3.3 -0.3 4 -2 4 -1.4 0 -2 -0.7 -2 -2.2z" data-index="15"></path>
  <path d="M109 268 c0 -3.3 0.3 -4 2 -4 2.1 0 2.5 1.6 1.4 5.8 -1.1 3.9 -3.4 2.7 -3.4 -1.8z" data-index="16"></path>
  <path d="M16.6 268.8 c-0.3 -1.3 -0.6 -3.8 -0.6 -5.5 0 -2.6 0.4 -3.3 2 -3.3 1.8 0 2 0.7 2 5.5 0 4 -0.4 5.5 -1.4 5.5 -0.7 0 -1.6 -1 -2 -2.2z" data-index="17"></path>
  <path d="M15.6 256.8 c-0.3 -1.3 -0.6 -3.8 -0.6 -5.5 0 -2.6 0.4 -3.3 2 -3.3 1.8 0 2 0.7 2 5.5 0 4 -0.4 5.5 -1.4 5.5 -0.7 0 -1.6 -1 -2 -2.2z" data-index="18"></path>
  <path d="M60 244 c0 -3.3 0.3 -4 2 -4 2.2 0 2.7 2.8 1 6.1 -1.7 3.1 -3 2.2 -3 -2.1z" data-index="19"></path>
  <path d="M43.1 240 c-1.6 -7.6 -1.4 -10 0.8 -10 1.5 0 1.9 1 2.5 5.3 0.9 7.8 0.8 9.7 -0.8 9.7 -0.9 0 -1.8 -1.9 -2.5 -5z" data-index="20"></path>
  <path d="M14.6 241.8 c-0.3 -1.3 -0.6 -5.6 -0.6 -9.5 0 -6.6 0.2 -7.3 2 -7.3 1.9 0 2 0.7 2 9.5 0 7.4 -0.3 9.5 -1.4 9.5 -0.7 0 -1.6 -1 -2 -2.2z" data-index="21"></path>
  <path d="M62 228.5 c0 -5.8 0.2 -6.5 2 -6.5 1.7 0 2 0.7 2 4.3 0 5.6 -0.9 8.7 -2.6 8.7 -1.1 0 -1.4 -1.6 -1.4 -6.5z" data-index="22"></path>
  <path d="M24 217 c0 -4.3 2.3 -5.7 3.3 -2 0.7 2.8 -0.3 6 -1.9 6 -1 0 -1.4 -1.3 -1.4 -4z" data-index="23"></path>
  <path d="M62 213 c0 -3.8 0.3 -7 0.6 -7 1.8 0 3.3 4.1 3.4 8.8 0 4.5 -0.2 5.2 -2 5.2 -1.8 0 -2 -0.7 -2 -7z" data-index="24"></path>
  <path d="M86.6 212.8 c-0.3 -1.3 -0.6 -4.7 -0.6 -7.5 0 -4.6 0.3 -5.3 2 -5.3 1.8 0 2 0.7 2 7.5 0 5.7 -0.3 7.5 -1.4 7.5 -0.7 0 -1.6 -1 -2 -2.2z" data-index="25"></path>
  <path d="M111 207.5 c0 -3.7 2.4 -5 3.2 -1.7 0.6 2.7 -0.2 5.2 -1.8 5.2 -0.9 0 -1.4 -1.1 -1.4 -3.5z" data-index="26"></path>
  <path d="M14 200.3 c0 -9.1 0.7 -12.3 2.6 -12.3 1.1 0 1.4 2.2 1.4 10 0 9.3 -0.1 10 -2 10 -1.8 0 -2 -0.7 -2 -7.7z" data-index="27"></path>
  <path d="M43 198.8 c0.1 -2.3 2.1 -5.8 3.4 -5.8 0.3 0 0.6 1.8 0.6 4 0 3.3 -0.3 4 -2 4 -1.4 0 -2 -0.7 -2 -2.2z" data-index="28"></path>
  <path d="M85.6 194.3 c-0.3 -1.6 -0.8 -5.4 -1.2 -8.5 -0.6 -5.4 -0.5 -5.8 1.5 -5.8 1.5 0 2.1 0.6 2.1 2.4 0 1.2 0.3 5.1 0.6 8.5 0.6 5.1 0.4 6.1 -0.9 6.1 -0.9 0 -1.8 -1.2 -2.1 -2.7z" data-index="29"></path>
  
  <path d="M108 168 c0 -3.6 0.4 -5 1.4 -5 1.5 0 2.6 3 2.6 7.3 0 2 -0.5 2.7 -2 2.7 -1.7 0 -2 -0.7 -2 -5z" data-index="31"></path>
  <path d="M16 168.8 c0.1 -3.1 1.9 -6.8 3.4 -6.8 0.3 0 0.6 2.3 0.6 5 0 4.3 -0.3 5 -2 5 -1.6 0 -2 -0.7 -2 -3.2z" data-index="32"></path>
  <path d="M105.6 152.4 c-0.8 -6.3 -0.8 -10.4 0.2 -10.4 1.5 0 3 3.8 3.7 9.3 0.7 5.3 0.6 5.7 -1.2 5.7 -1.6 0 -2.2 -0.9 -2.7 -4.6z" data-index="33"></path>
  <path d="M18 152.8 c0 -3.9 1.2 -6.8 2.6 -6.8 1 0 1.4 1.3 1.4 4.5 0 3.8 -0.3 4.5 -2 4.5 -1.4 0 -2 -0.7 -2 -2.2z" data-index="34"></path>
  <path d="M20 139.8 c0.1 -2.3 2.1 -5.8 3.4 -5.8 0.3 0 0.6 1.8 0.6 4 0 3.3 -0.3 4 -2 4 -1.4 0 -2 -0.7 -2 -2.2z" data-index="35"></path>
  <path d="M102 131 c0 -4.4 0.6 -4.9 2.6 -2.2 2.1 2.7 1.8 6.2 -0.6 6.2 -1.7 0 -2 -0.7 -2 -4z" data-index="36"></path>
  
  <path d="M22 130.3 c0 -3.4 1.2 -6.3 2.6 -6.3 1 0 1.4 1.3 1.4 4 0 3.3 -0.3 4 -2 4 -1.2 0 -2 -0.7 -2 -1.7z" data-index="38"></path>
  <path d="M24 120.8 c0.1 -2.3 2.1 -5.8 3.4 -5.8 0.3 0 0.6 1.8 0.6 4 0 3.3 -0.3 4 -2 4 -1.4 0 -2 -0.7 -2 -2.2z" data-index="39"></path>
  <path d="M97.8 116 c-2.8 -9.2 -2.1 -15.7 1 -9.7 1.6 2.9 4.2 11.7 4.2 14 0 1 -0.7 1.7 -1.7 1.7 -1.3 0 -2.3 -1.6 -3.5 -6z" data-index="40"></path>
  <path d="M27 110 c0 -1.1 0.7 -3.9 1.6 -6.2 3.6 -9.6 5.4 -11.4 5.4 -5.3 0 1.9 -0.4 3.5 -0.9 3.5 -0.5 0 -1.1 2.3 -1.5 5 -0.5 4.1 -1 5 -2.6 5 -1.3 0 -2 -0.7 -2 -2z" data-index="41"></path>
  <path d="M93 100 c0 -1.6 -0.4 -3 -1 -3 -0.5 0 -1 -1.6 -1 -3.5 0 -2.3 -0.5 -3.5 -1.4 -3.5 -1.7 0 -2.6 -2.2 -2.6 -6.1 0 -5.5 1.7 -3.5 6.6 7.9 0.9 2 2 4.5 2.5 5.4 1.6 3.1 1.1 5.8 -1.1 5.8 -1.6 0 -2 -0.7 -2 -3z" data-index="42"></path>
  <path d="M53.4 62.5 c1 -0.7 1.6 -1.8 1.3 -2.2 -0.3 -0.5 1.6 -1 4.4 -1 4 -0.1 4.9 0.2 4.9 1.7 0 1.9 -3.7 3 -9.4 3 -2.9 -0.1 -3 -0.2 -1.2 -1.5z" data-index="43"></path>
  <path d="M32 38.5 c0 -1.9 0.5 -3.5 1 -3.5 0.6 0 1 -0.9 1 -2 0 -1.5 0.7 -2 2.6 -2 1.4 0 2.4 0.3 2.2 0.8 -5.6 11.4 -6.8 12.6 -6.8 6.7z" data-index="44"></path>
 </g>
 <g fill="#f81d26">
  <path d="M36.9 435.3 c-9.6 -25.2 -16.5 -50.8 -22.4 -82.5 -3.1 -17.2 -3.1 -17.8 -0.1 -17.8 2.1 0 2.5 0.9 5.1 11.8 3.5 14.8 10.6 37.1 15.5 48.5 7.5 17.2 16.6 29.9 26.8 36.9 7.3 5.1 6.1 5.8 -9.8 5.8 l-14 0 -1.1 -2.7z" data-index="45"></path>
  
  <path d="M60.6 378 c-2.8 -0.3 -5.2 -1.2 -5.4 -1.8 -0.2 -0.7 -0.9 -1.2 -1.5 -1.2 -2.5 0 -10.5 -10.3 -14.6 -18.7 -14.3 -29 -22.5 -71.3 -24.6 -126.3 -0.6 -16.5 0.7 -52.8 2.4 -64.5 0.6 -3.8 1.7 -11.7 2.5 -17.5 1.9 -13.5 4.1 -25 5.6 -29.5 1 -2.9 1.6 -3.5 4 -3.5 1.5 0 3.3 0.7 4 1.5 0.7 0.8 1.8 1.5 2.5 1.5 0.7 0 1.8 0.6 2.4 1.3 0.6 0.8 3.6 2 6.6 2.7 6.6 1.6 6.9 2.8 1.9 8.3 -12.6 13.9 -20.3 52.7 -19.1 95.7 1.4 50 12.7 84.7 29.1 89.7 2.9 0.9 4 0.7 6.5 -0.8 4 -2.4 9.7 -11.4 13.3 -20.9 1.6 -4.1 3.3 -8.4 3.8 -9.5 0.5 -1.1 1.4 -4.7 2 -8 0.6 -3.3 1.7 -9.4 2.6 -13.5 2.2 -10.4 3 -48.2 1.4 -65.3 -1.4 -15.9 -4.1 -30.6 -8.1 -44.5 -1.6 -5.6 -2.9 -11.4 -2.9 -12.7 0 -2.2 0.4 -2.5 3.4 -2.5 1.9 0 3.8 0.5 4.1 1 0.3 0.6 1.6 1 2.8 1 1.2 0 3.3 0.7 4.7 1.5 5.6 3.2 11.3 5.5 13.9 5.5 5 0 6.3 5.7 9 40 1.3 15.3 1.3 56.2 0.1 73 -2.8 38 -9.7 70.3 -20.1 93.1 -4.3 9.6 -9.8 18.1 -12.1 18.7 -1 0.2 -1.8 1.1 -1.8 1.8 0 0.8 -0.9 1.4 -1.9 1.4 -3 0 -5.1 1.1 -5.1 2.6 0 1.5 -2.9 1.6 -11.4 0.4z" data-index="47" style="opacity: 1;"></path>
  <path d="M4.8 267.5 c-0.2 -2.9 0.1 -4.5 0.8 -4.5 1.5 0 2.4 2.3 2.4 6.1 0 5 -2.7 3.6 -3.2 -1.6z" data-index="48"></path>
  <path d="M3.6 241.9 c-0.8 -8 -0.8 -48.8 0 -56.8 0.5 -4.4 1.1 -6.1 2.2 -6.1 1 0 1.3 0.7 0.8 2.3 -0.3 1.2 -0.6 16.7 -0.6 34.5 0 30.3 -0.9 40.1 -2.4 26.1z" data-index="49"></path>
  <path d="M133 103 c0 -4 1.3 -5.3 2.4 -2.4 1.1 2.9 0.7 6.4 -0.9 6.4 -1.1 0 -1.5 -1.1 -1.5 -4z" data-index="50"></path>
 </g>
 <g fill="#eb1e26">
  <path d="M61.7 436 c-1.4 -1.1 -3.3 -2 -4.4 -2 -1.4 0 -1.5 -0.2 -0.4 -0.9 1 -0.7 0.8 -1.2 -1 -2.5 -1.3 -0.9 -3 -1.6 -3.7 -1.6 -0.8 0 -1.2 -0.6 -0.9 -1.2 0.5 -1.7 -3 -6.8 -4.8 -6.8 -0.7 0 -1.6 -0.8 -2.1 -1.7 -0.7 -1.7 -1.3 -6.3 -0.7 -6.3 0.1 0 1.6 2 3.2 4.4 3.8 5.5 11.6 13 15.9 15.3 1.7 1 3.2 2.6 3.2 3.5 0 2.3 -1.1 2.3 -4.3 -0.2z" data-index="51"></path>
  
  <path d="M88 436.6 c0 -0.7 0.9 -2.5 2.1 -4 1.5 -1.9 3 -2.6 5.4 -2.6 l3.4 0 -2.4 2.6 c-1.4 1.5 -2.5 3.3 -2.5 4 0 0.9 -1.1 1.4 -3 1.4 -1.9 0 -3 -0.5 -3 -1.4z" data-index="53" style="visibility: hidden;"></path>
  
  <path d="M36.4 400.5 c-0.4 -0.8 -1.2 -1.5 -2 -1.5 -0.8 0 -1.4 -0.4 -1.4 -1 0 -2 2.7 -0.9 3.8 1.5 0.6 1.4 0.9 2.5 0.6 2.5 -0.2 0 -0.7 -0.7 -1 -1.5z" data-index="55"></path>
  <path d="M30 390 c0 -0.5 0.7 -1 1.5 -1 0.8 0 1.5 0.5 1.5 1 0 0.6 -0.7 1 -1.5 1 -0.8 0 -1.5 -0.4 -1.5 -1z" data-index="56"></path>
  <path d="M28 385 c0 -0.5 0.7 -1 1.5 -1 0.8 0 1.5 0.5 1.5 1 0 0.6 -0.7 1 -1.5 1 -0.8 0 -1.5 -0.4 -1.5 -1z" data-index="57"></path>
  <path d="M27 382 c0 -0.5 0.7 -1 1.5 -1 0.8 0 1.5 0.5 1.5 1 0 0.6 -0.7 1 -1.5 1 -0.8 0 -1.5 -0.4 -1.5 -1z" data-index="58"></path>
  <path d="M26 379 c0 -0.5 0.7 -1 1.5 -1 0.8 0 1.5 0.5 1.5 1 0 0.6 -0.7 1 -1.5 1 -0.8 0 -1.5 -0.4 -1.5 -1z" data-index="59"></path>
  <path d="M51.4 373.8 c-6 -5.8 -10.7 -13.1 -10.1 -16 l0.4 -2.3 0.8 2.3 c0.5 1.5 1 2 1.5 1.2 0.4 -0.7 1 0.2 1.4 2.2 0.5 2.6 0.9 3 1.6 1.8 0.8 -1.2 1 -1.2 1 0.4 0 2.6 3.8 6.6 5.6 5.9 0.8 -0.3 1.4 0.1 1.4 1.1 0 1 0.6 1.3 1.5 1 1 -0.4 1.5 0 1.5 1.1 0 0.9 0.5 1.3 1 1 0.6 -0.3 1 -0.1 1 0.4 0 0.6 0.7 1.1 1.5 1.1 0.8 0 1.5 -0.4 1.5 -1 0 -1.7 3.8 -1.1 4.9 0.8 0.9 1.5 1 1.4 1.1 -0.6 0 -1.3 0.4 -2 1 -1.7 0.6 0.3 1 0.1 1 -0.6 0 -0.7 1 -0.9 2.5 -0.7 1.4 0.3 2.5 0.1 2.5 -0.3 0 -0.5 -0.6 -0.9 -1.2 -0.9 -0.7 0 -0.5 -0.5 0.5 -1.1 1 -0.6 2.4 -0.8 3.2 -0.5 0.7 0.2 1.9 -0.2 2.6 -1 1 -1.3 1 -1.7 -0.2 -2.5 -1.1 -0.7 -1 -0.9 0.6 -0.9 1.7 0 1.7 -0.2 0.5 -1 -1.3 -0.8 -1.3 -1 0.2 -1 0.9 0 1.9 0.6 2.1 1.3 0.4 0.7 0.6 0.6 0.6 -0.5 0.1 -0.9 -0.5 -1.9 -1.1 -2.1 -0.7 -0.3 -0.3 -0.6 1 -0.6 2.4 -0.1 3 -1.6 1 -2.4 -0.7 -0.3 -0.4 -0.6 0.8 -0.6 2.5 -0.1 7.8 -10.1 5.6 -10.9 -2 -0.6 -1.3 -2.5 0.8 -1.9 1.5 0.4 2 0 2 -1.4 0 -1 -0.4 -1.9 -1 -1.9 -0.5 0 -1 -0.5 -1 -1.1 0 -0.6 0.9 -0.9 2 -0.6 1.5 0.4 2 0 2 -1.4 0 -1 -0.4 -1.9 -1 -1.9 -0.5 0 -1 -0.4 -1 -1 0 -0.5 0.9 -1 2 -1 1.3 0 2 -0.7 2 -2 0 -1.1 -0.4 -2 -1 -2 -0.5 0 -1 -0.4 -1 -1 0 -0.5 0.9 -1 2 -1 1.5 0 2 -0.7 2 -2.5 0 -1.4 -0.4 -2.5 -1 -2.5 -0.5 0 -1 -0.4 -1 -1 0 -0.5 0.7 -1 1.5 -1 0.8 0 1.5 -0.4 1.5 -1 0 -0.5 -0.4 -1 -1 -1 -0.5 0 -1 -0.4 -1 -1 0 -0.5 0.7 -1 1.5 -1 0.8 0 1.5 -0.4 1.5 -1 0 -0.5 -0.4 -1 -1 -1 -0.5 0 -1 -0.7 -1 -1.5 0 -0.8 0.9 -1.5 2 -1.5 1.6 0 2 -0.7 2 -3 0 -1.6 -0.4 -3 -1 -3 -0.5 0 -1 -0.4 -1 -1 0 -0.5 0.7 -1 1.5 -1 0.8 0 1.5 -0.7 1.5 -1.5 0 -0.8 -0.4 -1.5 -1 -1.5 -0.5 0 -1 -0.4 -1 -1 0 -0.5 0.7 -1 1.5 -1 0.8 0 1.5 -0.9 1.5 -2 0 -1.1 -0.4 -2 -1 -2 -0.5 0 -1 -0.7 -1 -1.5 0 -0.8 0.7 -1.5 1.5 -1.5 0.8 0 1.5 -0.7 1.5 -1.5 0 -0.8 -0.4 -1.5 -1 -1.5 -0.5 0 -1 -0.7 -1 -1.5 0 -0.8 0.7 -1.5 1.5 -1.5 0.8 0 1.5 -0.9 1.5 -2 0 -1.1 -0.4 -2 -1 -2 -0.5 0 -1 -0.7 -1 -1.5 0 -0.8 0.7 -1.5 1.5 -1.5 0.9 0 1.5 -0.9 1.5 -2.5 0 -1.4 -0.4 -2.5 -1 -2.5 -0.5 0 -1 -1.1 -1 -2.5 0 -1.6 0.6 -2.5 1.5 -2.5 1 0 1.5 -1 1.5 -3 0 -1.6 -0.4 -3 -1 -3 -0.5 0 -1 -0.9 -1 -2 0 -1.1 0.6 -2 1.4 -2 0.8 0 1.7 -0.8 2 -1.7 1.1 -3.6 -0.6 17.7 -2.4 30.7 -2.6 18.4 -6.4 35.9 -10.4 47.8 -5.5 16.5 -13 31.6 -16.1 32.9 -0.8 0.3 -1.5 1.1 -1.5 1.8 0 0.7 -1.6 2.7 -3.5 4.4 -3.5 3 -3.9 3.1 -13.1 3.1 l-9.5 0 -4.5 -4.2z" data-index="60"></path>
  
  <path d="M17 367.1 c0 -0.5 -1.1 -7 -2.4 -14.3 -4 -21.8 -9.6 -68.3 -9.6 -79.3 0 -3.2 0.4 -4.5 1.4 -4.5 1 0 1.6 2.1 2 7.8 1.3 13.9 3.6 31.5 6.2 46.2 1.9 10.1 2.3 14.5 1.5 14.8 -1.4 0.5 -1.5 7.9 -0.1 8.7 0.6 0.3 1 2.2 1 4.1 0 1.9 0.7 5.1 1.5 7.1 1.1 2.5 1.2 4 0.5 4.8 -0.6 0.7 -0.8 1.9 -0.4 2.8 0.3 0.8 0.1 1.8 -0.5 2.2 -0.6 0.3 -1.1 0.2 -1.1 -0.4z" data-index="62"></path>
  <path d="M36.6 351.3 c-1.9 -3.9 -8.8 -23.7 -10 -28.5 -0.8 -3.4 0.6 -3.7 2.2 -0.5 1.9 3.6 4.2 11 4.2 13.4 0 1.2 0.7 2.8 1.5 3.7 0.8 0.8 1.5 2.2 1.5 3.2 0 1 0.7 2.5 1.6 3.5 0.9 1 1.9 3.4 2.4 5.3 1.1 4.9 -1.1 4.8 -3.4 -0.1z" data-index="63"></path>
  <path d="M56 320 c0 -0.5 -0.7 -1 -1.5 -1 -3.4 0 -1.2 -1.8 3 -2.3 4.6 -0.7 8.3 -3.7 12.8 -10.8 1.6 -2.4 5.7 -4.1 5.7 -2.4 0 1.2 -3.3 7.1 -5.7 10.3 -3.7 4.9 -14.3 9.5 -14.3 6.2z" data-index="64"></path>
  <path d="M24 312 c-1.3 -6.2 -0.9 -8.7 0.8 -5.3 1.4 2.7 2.5 11.3 1.4 11.3 -0.5 0 -1.5 -2.7 -2.2 -6z" data-index="65"></path>
  <path d="M75 299.3 c0 -1.7 3 -10.6 5 -14.8 0.5 -1.1 1.4 -4.5 1.9 -7.5 0.5 -3 1.6 -9.3 2.5 -14 0.8 -4.7 1.7 -10.6 2.1 -13.2 1 -7.7 2.8 -5.9 2.1 2 -0.9 8.9 -4.6 30.1 -5.8 33.2 -0.5 1.4 -1.2 3.6 -1.5 5 -1.2 6.8 -6.3 14.2 -6.3 9.3z" data-index="66"></path>
  <path d="M19.6 288.7 c-2.4 -16.2 -4.6 -39.8 -4.5 -49.7 0 -10.1 1.5 -8 1.8 2.5 0.1 6.2 1.3 21.2 2.6 33 0.3 2.2 1.2 7.8 2 12.5 1.7 9.6 1.9 13 0.7 13 -0.5 0 -1.6 -5.1 -2.6 -11.3z" data-index="67"></path>
  <path d="M32.1 280.1 c-1.1 -0.7 -1.1 -1 0 -1.4 1 -0.4 0.9 -0.6 -0.3 -0.6 -2.1 -0.1 -2.4 -2.7 -0.5 -3.4 0.7 -0.3 0.5 -0.6 -0.5 -0.6 -1.2 -0.1 -1.8 -0.9 -1.8 -2.6 0 -4.8 2.6 -2.6 3.8 3.2 1.3 6.2 1.2 6.6 -0.7 5.4z" data-index="68"></path>
  <path d="M28 266 c0 -1.1 0.7 -2 1.5 -2 0.8 0 1.5 0.9 1.5 2 0 1.1 -0.7 2 -1.5 2 -0.8 0 -1.5 -0.9 -1.5 -2z" data-index="69"></path>
  <path d="M5 265.1 c-1.3 -2.4 -1.3 -20.1 -0.1 -20.1 1.1 0 1.9 5.2 2.4 15.3 0.3 6.8 -0.4 8.3 -2.3 4.8z" data-index="70"></path>
  <path d="M27 259 c0 -1.1 0.7 -2 1.5 -2 0.8 0 1.5 0.9 1.5 2 0 1.1 -0.7 2 -1.5 2 -0.8 0 -1.5 -0.9 -1.5 -2z" data-index="71"></path>
  <path d="M26 253 c0 -2 0.5 -3 1.5 -3 1 0 1.5 1 1.5 3 0 2 -0.5 3 -1.5 3 -1 0 -1.5 -1 -1.5 -3z" data-index="72"></path>
  <path d="M112.2 249.9 c0.1 -1.9 -0.3 -3.4 -1 -3.7 -1.8 -0.6 -1.6 -7.2 0.2 -7.2 0.8 0 1.7 -0.8 1.9 -1.7 0.3 -1 0.5 1.9 0.6 6.4 0 4.6 -0.3 8.5 -0.9 8.8 -0.7 0.4 -0.9 -0.6 -0.8 -2.6z" data-index="73"></path>
  <path d="M25 242.1 c0 -1.6 0.6 -3.1 1.5 -3.5 1.2 -0.4 1.5 0.3 1.5 2.9 0 2.4 -0.5 3.5 -1.5 3.5 -1 0 -1.5 -1 -1.5 -2.9z" data-index="74"></path>
  <path d="M87 235.5 c0 -6.9 0.3 -8.5 1.5 -8.5 1.2 0 1.5 1.4 1.5 6.3 0 6.9 -0.8 10.7 -2.1 10.7 -0.5 0 -0.9 -3.8 -0.9 -8.5z" data-index="75"></path>
  <path d="M43.5 240 c-1.4 -6.3 -2 -22.3 -1.2 -30.2 1.5 -14.7 1.5 -14.8 4.1 -14.8 2.4 0 2.4 0 2.8 15.8 0.2 8.6 0.2 19.4 0 24 -0.4 7.8 -0.5 8.2 -2.7 8.2 -1.8 0 -2.5 -0.7 -3 -3z" data-index="76" style="opacity: 1;"></path>
  <path d="M24 218 c0 -8.2 0.3 -10 1.5 -10 1.2 0 1.5 1.8 1.5 10 0 8.2 -0.3 10 -1.5 10 -1.2 0 -1.5 -1.8 -1.5 -10z" data-index="77"></path>
  <path d="M87 211.8 c0 -8.8 -2.8 -31.7 -5.1 -42.3 -4.5 -21.2 -9.9 -33.6 -17.9 -41.6 -4.9 -4.9 -7 -5.8 -9.3 -3.9 -0.7 0.6 -2.8 2.1 -4.7 3.3 -8.9 5.7 -16.6 25.1 -20.4 51.7 -0.8 5.2 -1.4 8.5 -1.5 7.3 -0.1 -1.3 -0.5 -2.3 -1.1 -2.3 -0.5 0 -1 -0.9 -1 -2 0 -1.1 0.7 -2 1.5 -2 0.8 0 1.5 -0.7 1.5 -1.5 0 -0.8 -0.4 -1.5 -1 -1.5 -0.5 0 -1 -0.9 -1 -2 0 -1.1 0.7 -2 1.5 -2 0.8 0 1.5 -0.4 1.5 -1 0 -0.5 -0.4 -1 -1 -1 -0.5 0 -1 -0.7 -1 -1.5 0 -0.8 0.7 -1.5 1.5 -1.5 0.8 0 1.5 -0.4 1.5 -1 0 -0.5 -0.4 -1 -1 -1 -0.5 0 -1 -1.1 -1 -2.5 0 -1.6 0.6 -2.5 1.5 -2.5 1.6 0 2.1 -1.6 0.6 -2.2 -1.6 -0.5 0 -5.8 1.8 -5.9 1 0 1.1 -0.2 0.4 -0.6 -1.8 -0.7 -1.6 -2.3 0.2 -2.3 0.8 0 1.5 -0.4 1.5 -1 0 -0.5 -0.4 -1 -1 -1 -1.8 0 -1.1 -2 0.8 -2.1 1 0 1.2 -0.3 0.5 -0.6 -1.9 -0.7 -1.6 -2.3 0.5 -2.3 1.4 0 1.5 -0.2 0.2 -1 -1.2 -0.8 -1.2 -1 0.5 -1.1 1.1 0 1.4 -0.3 0.8 -0.6 -2 -0.8 -1.5 -2.3 0.7 -2.3 1.1 0 2 -0.7 2 -1.5 0 -0.8 -0.4 -1.5 -1 -1.5 -1.9 0 -1 -2.1 1.3 -3 1.2 -0.5 1.6 -0.9 1 -0.9 -0.7 -0.1 -1.3 -0.5 -1.3 -1.1 0 -1.4 2.7 -1.2 3.3 0.3 0.3 0.7 0.6 0.5 0.6 -0.5 0.1 -1 -0.4 -1.8 -1 -1.8 -0.6 0 -0.9 -0.7 -0.6 -1.5 0.4 -1 -0.4 -1.6 -2.8 -2.1 -1.9 -0.3 -3.9 -1.2 -4.6 -2 -0.6 -0.8 -1.7 -1.4 -2.4 -1.4 -0.7 0 -1.8 -0.7 -2.5 -1.5 -0.7 -0.8 -1.6 -1.5 -2 -1.5 -2.8 0 -10.8 51.5 -11.1 70.7 0 3.2 -0.5 6.7 -1 7.8 -1.2 2.5 -0.4 -21 1 -31 0.6 -3.8 1.7 -11.7 2.5 -17.5 2.9 -19.9 3.4 -22.1 9.8 -44.3 l1.9 -6.9 5.7 0.5 c6.9 0.5 14.1 2.6 21.6 6.1 3 1.4 5.8 2.6 6.2 2.6 0.4 0 1.5 0.6 2.3 1.3 0.9 0.8 3.9 2 6.6 2.7 2.8 0.8 6.4 2.3 8 3.5 1.7 1.1 7.2 3.8 12.3 6 l9.2 3.9 1.3 5 c3.6 13.4 8.8 48.7 8.6 58.1 -0.1 2.2 -0.3 3.2 -0.6 2.3 -0.2 -1 -1.1 -1.8 -1.9 -1.8 -0.9 0 -1.4 -1.1 -1.4 -3 0 -1.6 0.5 -3 1 -3 0.6 0 1 -0.7 1 -1.5 0 -0.8 -0.7 -1.5 -1.5 -1.5 -1 0 -1.5 -1.1 -1.5 -3.5 0 -1.9 0.5 -3.5 1 -3.5 0.6 0 1 -0.9 1 -2 0 -1.1 -0.7 -2 -1.5 -2 -0.8 0 -1.5 -0.9 -1.5 -2 0 -1.1 0.5 -2 1 -2 0.6 0 1 -0.7 1 -1.5 0 -0.8 -0.7 -1.5 -1.5 -1.5 -1.8 0 -2 -3.6 -0.2 -4.3 0.7 -0.4 0.6 -0.6 -0.4 -0.6 -0.9 -0.1 -2 -1.2 -2.3 -2.5 -0.5 -1.9 -1.3 -2.5 -3.4 -2.4 -2.5 0 -8.3 -2.3 -14.2 -5.7 -1.4 -0.8 -3.4 -1.5 -4.5 -1.5 -1.2 0 -2.7 -0.6 -3.4 -1.2 -1 -1.1 -1 -0.7 -0.1 1.7 0.6 1.7 1.6 5.5 2.2 8.5 0.5 3 1.3 6 1.8 6.5 0.4 0.6 1 2.6 1.3 4.5 0.2 1.9 1.2 7.3 2.1 12 1.8 9.8 3.6 27.8 3.6 36.3 0 4.4 -0.3 5.7 -1.5 5.7 -1.1 0 -1.5 -1.3 -1.5 -5.2z" data-index="78"></path>
  <path d="M113 208.5 c0 -0.8 -0.7 -1.5 -1.5 -1.5 -1.1 0 -1.5 -1.2 -1.5 -5 0 -2.7 0.5 -5 1 -5 0.6 0 1 -0.7 1 -1.5 0 -0.8 0.5 -1.5 1 -1.5 0.6 0 1 3.3 1 8 0 4.4 -0.2 8 -0.5 8 -0.3 0 -0.5 -0.7 -0.5 -1.5z" data-index="79"></path>
  <path d="M24 205 c0 -1.1 0.7 -2 1.5 -2 0.8 0 1.5 0.9 1.5 2 0 1.1 -0.7 2 -1.5 2 -0.8 0 -1.5 -0.9 -1.5 -2z" data-index="80"></path>
  <path d="M27 197 c0 -1.1 -0.4 -2 -1 -2 -0.5 0 -1 -1.3 -1 -3 0 -2 0.5 -3 1.5 -3 1.1 0 1.5 1.2 1.5 5 0 2.8 -0.2 5 -0.5 5 -0.3 0 -0.5 -0.9 -0.5 -2z" data-index="81"></path>
  <path d="M4.4 165.8 c0.4 -8.9 1.6 -24.8 2.7 -35.2 3.4 -31.8 2.7 -28.6 6.1 -28.6 2.3 0 2.8 0.4 2.4 1.8 -2.5 8.1 -7.3 46.3 -8.3 65.5 -0.5 10.3 -0.9 12.7 -2.1 12.7 -1.3 0 -1.4 -2.2 -0.8 -16.2z" data-index="82"></path>
 </g>
 <g fill="#dc1e26">
  
  <path d="M59 377.1 c0 -1.4 1 -2 4.2 -2.5 2.6 -0.4 4.4 -0.3 4.6 0.3 0.2 0.5 1 0.7 1.8 0.4 0.9 -0.3 1.4 0.2 1.4 1.6 0 1.9 -0.6 2.1 -6 2.1 -5.2 0 -6 -0.3 -6 -1.9z" data-index="84"></path>
  
  <path d="M47.1 252.1 c-1.8 -3.2 -4.1 -13.3 -4 -17.1 l0.1 -3.5 1.1 4.5 1.2 4.5 0.5 -7.5 c0.6 -8.6 0.1 -35.5 -0.6 -34.8 -0.2 0.3 -0.8 2.5 -1.3 4.9 l-0.9 4.4 0 -4.5 c0 -2.5 0.9 -7.4 2.1 -11 1.9 -5.7 2.5 -6.5 5 -6.8 l2.7 -0.3 -0.2 34.3 -0.3 34.3 -2.2 0.3 c-1.4 0.2 -2.6 -0.4 -3.2 -1.7z" data-index="86"></path>
  <path d="M41.7 220.8 c-0.2 -1.8 -0.1 -4 0.4 -4.8 0.5 -1 0.8 0.1 0.9 3.3 0 5.5 -0.6 6.1 -1.3 1.5z" data-index="87"></path>
  <path d="M4 178.5 c0 -4.8 2.6 -4.8 2.7 0 0.1 2.4 -0.3 3.5 -1.3 3.5 -0.9 0 -1.4 -1.2 -1.4 -3.5z" data-index="88"></path>
  <path d="M105.1 137.3 c-0.1 -0.7 -0.8 -1.3 -1.6 -1.3 -0.8 0 -1.5 -0.4 -1.5 -1 0 -0.5 0.5 -1 1 -1 0.6 0 1 -0.4 1 -1 0 -0.5 -0.7 -1 -1.5 -1 -1.8 0 -2 -2.6 -0.2 -3.3 0.7 -0.4 0.6 -0.6 -0.5 -0.6 -0.9 -0.1 -1.8 -0.5 -2 -0.9 -0.1 -0.5 -5 -3 -10.7 -5.5 -5.8 -2.6 -11.2 -5.3 -12 -6 -0.9 -0.8 -3.8 -2 -6.6 -2.7 -2.7 -0.7 -5.7 -1.9 -6.6 -2.7 -0.8 -0.7 -1.9 -1.3 -2.3 -1.3 -0.4 0 -3.2 -1.2 -6.2 -2.6 -5.8 -2.7 -13.7 -5.3 -19 -6.1 -2.5 -0.4 -3.5 0 -4.8 1.8 -3.2 4.7 -2.5 0.8 1.9 -9.9 2.5 -6.1 5.5 -12.7 6.6 -14.6 3.4 -5.9 6.5 -5.2 29.2 5.9 10.6 5.2 20.3 9.5 21.5 9.5 1.5 0 2.7 1.2 4.1 3.8 3.8 7.5 11.9 37.6 10.8 40.3 -0.4 1 -0.6 1 -0.6 0.2z" data-index="89"></path>
  <path d="M47.6 125.5 c0.4 -0.9 1.5 -2 2.5 -2.6 1.1 -0.5 1.9 -1.7 1.9 -2.6 0 -1 0.6 -1.4 2 -1 1.1 0.3 2 0 2 -0.6 0 -0.7 0.4 -0.6 0.9 0.2 0.5 0.8 1.6 1.1 2.5 0.8 1 -0.4 3 0.7 5.3 2.8 l3.8 3.5 -3.7 0 c-2.1 0 -3.8 -0.4 -3.8 -1 0 -1.6 -7 -1.2 -8.6 0.5 -2.1 2 -5.5 2 -4.8 0z" data-index="90"></path>
  <path d="M134 122.8 c0 -0.7 -0.3 -2.3 -0.6 -3.5 -0.5 -1.7 -0.2 -2.3 1 -2.3 1.2 0 1.6 0.9 1.6 3.5 0 1.9 -0.4 3.5 -1 3.5 -0.5 0 -1 -0.6 -1 -1.2z" data-index="91"></path>
  <path d="M10 106.7 c0 -1.2 0.9 -7.6 2 -14.2 1.1 -6.6 2 -12.4 2 -12.8 0 -0.5 1.5 -0.7 3.3 -0.5 1.7 0.2 3.1 0.8 3 1.5 -3.4 18 -4.9 23.7 -6.5 24.1 -2.1 0.5 -2.4 1.8 -0.6 2.4 0.7 0.3 0.2 0.7 -1 1 -1.8 0.5 -2.2 0.2 -2.2 -1.5z" data-index="92"></path>
 </g>
 <g fill="#cd1e26">
  
  <path d="M23.6 310.8 c-0.8 -3.2 -0.7 -4.8 0.3 -4.8 0.5 0 1.1 1.6 1.3 3.5 0.4 3.9 -0.6 4.8 -1.6 1.3z" data-index="94"></path>
  <path d="M107.1 300 c0 -1.4 0.4 -3.2 0.9 -4 0.8 -1.2 1 -1.2 0.9 0.5 0 1.1 -0.4 2.9 -0.9 4 -0.8 1.8 -0.9 1.8 -0.9 -0.5z" data-index="95"></path>
  <path d="M110.4 277.2 c0.3 -1.9 0.7 -3.6 1 -4 0.9 -0.9 0.6 3.1 -0.5 5.3 -0.7 1.6 -0.8 1.3 -0.5 -1.3z" data-index="96"></path>
  <path d="M82 274.8 c0 -3 1.3 -5.8 2.7 -5.8 1 0 1.3 0.6 0.9 1.6 -0.3 0.9 -0.6 2.4 -0.6 3.5 0 1 -0.7 1.9 -1.5 1.9 -0.8 0 -1.5 -0.6 -1.5 -1.2z" data-index="97"></path>
  <path d="M111.1 268.5 c0 -1.1 0.4 -2.9 0.9 -4 l0.9 -2 0 2 c0 1.1 -0.4 2.9 -0.9 4 l-0.9 2 0 -2z" data-index="98"></path>
  <path d="M47.5 253.1 c-0.9 -2.2 -1.5 -4.5 -1.2 -5.3 0.4 -0.9 0.8 -0.6 1.2 0.9 1.9 6.1 2.5 -1.5 2.5 -30 -0.1 -27.7 -0.2 -31 -1.5 -29.3 -1.4 1.9 -1.5 1.9 -1.5 -0.5 0 -4.1 2.1 -6.1 6 -5.7 l3.5 0.3 0.3 34 c0.3 37.2 0 39.5 -4.8 39.5 -2.2 0 -3 -0.8 -4.5 -3.9z" data-index="99"></path>
  
  <path d="M108.8 157.4 c-0.5 -0.4 -0.8 -2.1 -0.7 -3.8 0 -3 0 -3 1 -0.7 1.1 2.7 0.8 5.7 -0.3 4.5z" data-index="101"></path>
  <path d="M20 141.8 c0 -2.3 1.2 -5.8 1.9 -5.8 1 0 0.1 5.9 -1 6.6 -0.5 0.3 -0.9 -0.1 -0.9 -0.8z" data-index="102"></path>
  <path d="M134.1 123 c0 -3.3 0.1 -3.4 1.1 -1.2 0.8 1.7 0.8 2.6 0 3.4 -0.9 0.9 -1.2 0.4 -1.1 -2.2z" data-index="103"></path>
  <path d="M99 112.5 c0 -0.8 -0.8 -1.5 -1.7 -1.5 -1.5 0 -1.6 -0.2 -0.3 -1 1.3 -0.8 1.2 -1 -0.2 -1 -2.1 0 -2.4 -1.6 -0.5 -2.3 0.7 -0.3 0.5 -0.6 -0.5 -0.6 -2.1 -0.1 -2.4 -1.7 -0.5 -2.4 0.8 -0.4 0.7 -0.6 -0.4 -0.6 -0.8 -0.1 -2.3 -1.7 -3.2 -3.6 -1.2 -2.4 -2.3 -3.5 -3.9 -3.5 -1.2 0 -10.9 -4.3 -21.5 -9.5 -10.7 -5.2 -20 -9.5 -20.8 -9.5 -0.8 0 -2.2 1.3 -3.2 3 -2 3.4 -3.3 3.9 -3.3 1.2 0 -2.7 5.1 -10.2 10.2 -14.9 3.4 -3.1 5.7 -4.3 9.1 -4.8 6 -0.9 14.9 1.2 18.8 4.4 7 5.8 14.4 19.3 20.5 37.5 3.9 11.4 3.7 10.6 2.4 10.6 -0.5 0 -1 -0.7 -1 -1.5z" data-index="104"></path>
  <path d="M19.1 84.4 c-0.1 -1.7 -3.1 -2.6 -4.6 -1.4 -0.9 0.8 -0.8 -1.5 0.5 -8.7 3.5 -18.7 3.1 -17.8 7 -17.8 3.2 0 3.5 0.3 3.7 3 0.2 1.7 -1.3 8.2 -3.1 14.5 -1.9 6.3 -3.5 11 -3.5 10.4z" data-index="105"></path>
 </g>
 <g fill="#b71e27">
  <path d="M40.1 408.1 c-2.9 -5.6 -2.6 -6.5 0.4 -1.2 1.4 2.4 2.3 4.6 2.1 4.8 -0.3 0.3 -1.4 -1.3 -2.5 -3.6z" data-index="106"></path>
  <path d="M32.2 340.4 c-1.4 -4.5 0.6 -4.2 2.5 0.4 1.1 2.7 1.1 3.2 0 3.2 -0.8 0 -1.9 -1.6 -2.5 -3.6z" data-index="107"></path>
  <path d="M30.5 335 c-0.8 -1.2 -5.5 -17.9 -5.5 -19.2 0 -0.5 0.4 -0.8 0.8 -0.8 1 0 6.7 19.9 5.9 20.6 -0.3 0.3 -0.8 0 -1.2 -0.6z" data-index="108"></path>
  <path d="M102.2 321.3 c1 -4.6 2.8 -8.2 2.8 -5.4 0 2.5 -2.3 10.1 -3 10.1 -0.4 0 -0.3 -2.1 0.2 -4.7z" data-index="109"></path>
  <path d="M23.7 309.3 c-0.2 -0.4 -0.8 -2.4 -1.2 -4.3 -0.3 -1.9 -0.9 -4.3 -1.1 -5.2 -0.3 -1 -0.1 -1.8 0.5 -1.8 1 0 3.6 10.8 2.8 11.6 -0.3 0.3 -0.7 0.2 -1 -0.3z" data-index="110"></path>
  <path d="M40.4 301.4 c-1.4 -3.1 -2.3 -5.8 -2.2 -6 0.2 -0.1 1.7 2.4 3.4 5.7 1.7 3.2 2.7 5.9 2.2 5.9 -0.5 0 -2 -2.5 -3.4 -5.6z" data-index="111"></path>
  <path d="M20.8 294.4 c-0.5 -0.4 -0.8 -2.1 -0.7 -3.8 0 -3 0 -3 1 -0.7 1.1 2.7 0.8 5.7 -0.3 4.5z" data-index="112"></path>
  <path d="M108.1 292.5 c0 -1.1 0.4 -2.9 0.9 -4 0.8 -1.8 0.9 -1.8 0.9 0.5 0 1.4 -0.4 3.2 -0.9 4 -0.8 1.2 -1 1.2 -0.9 -0.5z" data-index="113"></path>
  <path d="M18.1 277.3 c0 -3.1 0.2 -3.4 0.9 -1.8 1.2 2.8 1.2 5.5 0 5.5 -0.5 0 -1 -1.7 -0.9 -3.7z" data-index="114"></path>
  <path d="M111.2 268.5 c0 -1.1 0.3 -2.9 0.8 -4 1.1 -2.5 1.1 0.1 0 3.5 -0.6 2 -0.8 2.1 -0.8 0.5z" data-index="115"></path>
  <path d="M84 266.8 c0 -2.7 1.6 -5.5 2.5 -4.6 0.9 0.9 -0.5 6.8 -1.6 6.8 -0.5 0 -0.9 -1 -0.9 -2.2z" data-index="116"></path>
  <path d="M49.7 257.3 c-0.4 -0.3 -0.7 -1.7 -0.7 -3.1 0 -2 0.3 -2.2 1.4 -1.3 3.1 2.6 3.6 -3.4 3.4 -35.4 -0.3 -28.8 -0.4 -31 -2 -30.9 -1.1 0.1 -1.8 -0.5 -1.8 -1.7 0 -1.5 0.7 -1.9 3.8 -1.9 3.4 0 4.1 0.4 5.6 3.3 2.9 5.7 4.1 14.8 4.1 31.4 0 9 0.4 16.3 0.8 16.3 1.8 0 -2.5 17.2 -5.5 21.9 -0.9 1.5 -2.3 2.1 -4.9 2.1 -1.9 0 -3.9 -0.3 -4.2 -0.7z" data-index="117"></path>
  <path d="M112.1 252.5 c0 -1.1 0.4 -2.9 0.9 -4 0.8 -1.8 0.9 -1.8 0.9 0.5 0 1.4 -0.4 3.2 -0.9 4 -0.8 1.2 -1 1.2 -0.9 -0.5z" data-index="118"></path>
  <path d="M15 245.8 c0 -4.9 0.9 -4.6 1.5 0.6 0.3 2 0.1 3.6 -0.5 3.6 -0.6 0 -1 -1.9 -1 -4.2z" data-index="119"></path>
  <path d="M42.5 233 c-0.4 -1.7 -0.5 -3.4 -0.2 -3.6 0.3 -0.3 0.8 0.9 1.2 2.6 0.4 1.7 0.5 3.4 0.2 3.6 -0.3 0.3 -0.8 -0.9 -1.2 -2.6z" data-index="120"></path>
  <path d="M87 222 c0 -6 0.4 -11 0.9 -11 1.3 0 2.1 3.9 2.1 11 0 7.1 -0.8 11 -2.1 11 -0.5 0 -0.9 -4.9 -0.9 -11z" data-index="121"></path>
  <path d="M14 217 c0 -4 0.4 -7 1 -7 0.6 0 1 3 1 7 0 4 -0.4 7 -1 7 -0.6 0 -1 -3 -1 -7z" data-index="122"></path>
  <path d="M112.8 198 c-0.4 -1.4 -0.8 -3.6 -0.7 -5 l0 -2.5 1 2.5 c0.5 1.3 0.9 3.6 0.7 5 l-0.3 2.5 -0.7 -2.5z" data-index="123"></path>
  <path d="M85.6 192.8 c-0.9 -3.6 -0.7 -4.8 0.9 -4.8 1 0 1.5 1.1 1.5 3.5 0 3.9 -1.4 4.7 -2.4 1.3z" data-index="124"></path>
  <path d="M15 186.2 c0 -3 0.4 -5.2 1.1 -5.2 0.6 0 0.8 1.7 0.5 4.6 -0.7 6.4 -1.6 6.8 -1.6 0.6z" data-index="125"></path>
  <path d="M111.6 181.2 c-0.5 -1.8 -0.5 -3.6 -0.2 -3.9 0.7 -0.7 1.9 4.3 1.3 5.9 -0.2 0.7 -0.7 -0.2 -1.1 -2z" data-index="126"></path>
  <path d="M110.5 171 c-0.4 -1.7 -0.5 -3.4 -0.2 -3.6 0.3 -0.3 0.8 0.9 1.2 2.6 0.4 1.7 0.5 3.4 0.2 3.6 -0.3 0.3 -0.8 -0.9 -1.2 -2.6z" data-index="127"></path>
  <path d="M16.4 169.8 c0.4 -1.8 1.1 -7 1.5 -11.6 0.7 -7.5 2.1 -12.4 2.1 -7.6 0 5.4 -2.5 22.4 -3.3 22.4 -0.5 0 -0.7 -1.4 -0.3 -3.2z" data-index="128"></path>
  <path d="M109.6 163.3 c-1.4 -6.7 -2.6 -16.6 -2.2 -17 0.6 -0.6 1.1 1.6 2.7 11.5 1.1 7 0.7 11.4 -0.5 5.5z" data-index="129"></path>
  <path d="M37.1 144.9 c-0.1 -0.8 0.6 -2.4 1.5 -3.5 1.5 -1.9 1.5 -1.9 0.6 0.1 -0.5 1.1 -1.2 2.7 -1.5 3.5 -0.5 1.3 -0.6 1.3 -0.6 -0.1z" data-index="130"></path>
  <path d="M100.1 115.9 c-1.3 -3.9 -1.3 -3.9 -0.2 -3.9 1 0 2.6 5.8 1.8 6.6 -0.3 0.3 -1 -0.9 -1.6 -2.7z" data-index="131"></path>
  <path d="M28.4 105.8 c0.7 -3.4 1.3 -4.4 2.1 -3.6 0.9 0.8 -0.7 6.8 -1.7 6.8 -0.6 0 -0.8 -1.3 -0.4 -3.2z" data-index="132"></path>
  <path d="M128.5 94.3 c-0.4 -2.1 -1.1 -5.4 -1.6 -7.3 -0.5 -1.9 -0.9 -5.6 -0.9 -8.1 0 -4.9 0.9 -5.9 5.4 -5.9 2.1 0 2.4 0.6 3 7.7 0.3 4.2 0.6 9.8 0.6 12.5 0 4.7 -0.1 4.8 -3 4.8 -2.6 0 -3 -0.4 -3.5 -3.7z" data-index="133"></path>
  <path d="M83.5 77.9 c-1.1 -1.4 -2.9 -2.8 -3.9 -3.2 -1 -0.4 -1.6 -1 -1.2 -1.4 0.8 -0.8 -2.3 -4.3 -4 -4.3 -0.7 0 -1.4 -0.5 -1.6 -1 -0.4 -1.2 -10.8 -4.1 -12 -3.4 -0.4 0.3 -0.8 -0.4 -0.8 -1.5 0 -1.8 0.6 -2.1 3.9 -2.1 7 0 14.1 3.6 14.1 7.2 0 1 0.7 1.8 1.8 1.8 2 0 6.5 6.4 6 8.8 -0.3 1.3 -0.7 1.2 -2.3 -0.9z" data-index="134"></path>
  <path d="M22.4 62.4 c1.1 -2.9 -0.5 -3.6 -2.9 -1.4 l-2.4 2.2 1.4 -6.3 c3.3 -15 8.1 -31.2 9.3 -31.6 0.7 -0.3 3.2 -0.2 5.7 0.1 4.3 0.7 4.5 0.9 4.5 3.9 0 1.8 -2 7.7 -4.4 13.2 -2.4 5.5 -5.2 12.6 -6.2 15.8 -1.3 4.3 -2.2 5.7 -3.7 5.7 -1.3 0 -1.7 -0.5 -1.3 -1.6z" data-index="135"></path>
 </g>
 <g fill="#a21e28">
  
  <path d="M60 379.8 c-5.7 -1.6 -15.8 -12.8 -20.9 -23.3 -17.9 -36.6 -27.2 -100.1 -24.1 -163 0.6 -12.1 1.5 -23.8 2 -26 0.7 -3.1 0.8 -2.4 0.4 3.5 -5.4 73.1 2.5 139.9 21.3 179 6.5 13.6 12.1 20.3 19.8 24 4.9 2.4 8.4 2.5 13.3 0.5 15.3 -6.4 29 -36.9 36.1 -80.5 1.1 -6.9 2.2 -13.6 2.4 -15 0.4 -2.2 0.4 -2.2 0.6 0.5 0 1.7 -0.8 8.6 -1.9 15.5 -7.9 48 -22.5 79.9 -38.8 84.8 -4.5 1.4 -5.4 1.4 -10.2 0z" data-index="137"></path>
  <path d="M53.3 318.3 c-1.7 -1 -4.2 -3.1 -5.5 -4.8 -1.2 -1.6 -2.5 -3.2 -2.8 -3.5 -0.8 -0.7 -6 -11.8 -6 -12.8 0 -0.4 1.4 1.8 3 4.8 4.2 7.7 10.2 13 14.9 13 2 0 4.7 -0.6 6.1 -1.3 3.9 -2 9.8 -10.6 13 -19.2 1.7 -4.4 3.5 -8.9 4 -10 1.2 -2.7 4.7 -20.9 6.1 -32 1.6 -12.3 0.6 -55.6 -1.6 -69.4 -5.3 -33.4 -15.4 -55.7 -26.1 -57.7 -6.5 -1.2 -11.8 2.7 -17.4 12.6 -1.7 3 -2.8 4.4 -2.4 3 2.2 -8.3 11.5 -19.6 17 -20.6 12.8 -2.4 23.8 18.3 30.7 57.6 1.9 11.1 2.1 16.2 2.2 44.5 0 28.9 -0.2 33.2 -2.3 44.4 -4.6 25.4 -11.2 42.3 -19.5 49.9 -3.4 3.2 -9.3 3.8 -13.4 1.5z" data-index="138" style="opacity: 1;"></path>
  <path d="M111.3 271.5 c0 -2.7 0.2 -3.8 0.4 -2.2 0.2 1.5 0.2 3.7 0 5 -0.2 1.2 -0.4 0 -0.4 -2.8z" data-index="139"></path>
  <path d="M112.8 232 c0.2 -19 0.5 -34.9 0.7 -35.5 0.6 -1.9 0.3 53 -0.4 61.5 -0.4 4.7 -0.5 -7 -0.3 -26z" data-index="140"></path>
  <path d="M49.6 256.8 c-4.3 -6.5 -7.6 -20.5 -7.4 -30.8 0.1 -4.6 0.2 -4 0.9 3.2 1.4 14.6 6.2 25.8 11.1 25.8 3.1 0 8.6 -10.9 6 -11.8 -1.7 -0.5 -1.5 -2.2 0.3 -2.2 0.8 0 1.5 -0.4 1.5 -1 0 -0.5 -0.4 -1 -0.9 -1 -0.4 0 -0.9 -8.8 -0.9 -19.5 -0.1 -11.7 0.3 -19.5 0.9 -19.5 0.5 0 0.9 -0.4 0.9 -1 0 -0.5 -0.7 -1 -1.5 -1 -1.8 0 -2 -1.7 -0.3 -2.2 0.8 -0.3 0.4 -1.9 -1.3 -4.9 -5.1 -9.2 -11.1 -5.3 -14.5 9.5 l-1.4 6.1 0.4 -5 c1.1 -11.3 5.6 -20.5 10.1 -20.5 5.1 0 8.4 8.4 11 27.9 2.3 17.6 -0.4 38.9 -6.1 47.5 -2.1 3.4 -6.7 3.5 -8.8 0.4z" data-index="141"></path>
  <path d="M41.7 214.8 c0.8 -5.7 1.3 -6.1 1.3 -1 0 2.2 -0.4 4.3 -0.9 4.6 -0.5 0.4 -0.7 -1.2 -0.4 -3.6z" data-index="142"></path>
  <path d="M112.5 193.8 c-0.2 -0.7 -0.6 -5.9 -1 -11.5 -0.3 -5.6 -1.5 -16.1 -2.5 -23.3 -2.1 -13.8 -2.3 -15.6 -1.6 -14.9 1.2 1.1 5 31.8 5.8 46.2 0.3 4.7 0.1 5.8 -0.7 3.5z" data-index="143"></path>
  <path d="M18.5 155.5 c1.4 -23.8 13.1 -64.7 23 -80 4.6 -7.1 12.5 -14.1 17.3 -15.5 11.6 -3.1 23.3 6.7 32.7 27.5 5.6 12.2 15.4 46.2 14.3 49.5 -0.2 0.7 -1.2 -2.5 -2.2 -7.1 -2.7 -12.9 -9.3 -32.1 -14.4 -42.3 -7.9 -15.7 -19.3 -25 -28.5 -23.1 -17.7 3.6 -32.5 35.4 -40.8 87.2 -1.8 11.4 -1.8 11.6 -1.4 3.8z" data-index="144"></path>
  <path d="M132.1 113.3 c-10.5 -57.4 -29.2 -97.6 -49.8 -107.3 -15 -7.1 -32 3.2 -43.9 26.5 -4 7.9 -5.4 9.8 -6.3 8.8 -0.9 -1 -0.8 -1.3 0.4 -1.3 1.7 0 2.1 -1.6 0.5 -2.2 -0.7 -0.2 -0.5 -1.6 0.5 -4 0.8 -2.1 1.5 -3.9 1.5 -4.2 0 -0.3 -2 -0.8 -4.5 -1.2 -2.5 -0.3 -4.5 -0.7 -4.5 -0.8 0 -0.9 8 -23.8 8.9 -25.4 l1.2 -2.2 49.6 0 49.6 0 -0.7 3.1 c-0.3 1.7 -0.6 18.8 -0.6 37.9 l0 34.8 -2.5 0.6 c-2.8 0.7 -2.9 1.4 -1.4 8.8 0.6 2.9 1.3 6.3 1.5 7.6 0.2 1.2 1.1 2.2 1.8 2.2 1.8 0 3.1 18 1.9 25.8 l-0.8 5.3 -2.4 -12.8z" data-index="145"></path>
 </g>
</svg>