<svg version="1.0" xmlns="http://www.w3.org/2000/svg" width="984px" height="154px" viewBox="0 0 984 154" preserveAspectRatio="xMidYMid meet">
 <g fill="#ffffff">
  
 </g>
 <g fill="#ea1f26">
  <path d="M40.4 136.9 c-20.4 -2.6 -30.2 -10.1 -29.2 -22.3 0.2 -3 1.6 -7.8 3.1 -10.8 3.3 -6.8 15 -21 18.3 -22.3 1.7 -0.6 2.2 -1.4 1.8 -2.5 -0.4 -0.8 -0.9 -3.2 -1.2 -5.3 l-0.4 -3.7 87.3 0 c48.1 0 254.6 0 458.9 -0.1 204.3 -0.1 373 -0.1 374.8 0 2.9 0.1 3.2 0.4 3.2 3.4 l0 3.3 -17.7 4 -17.8 3.9 -390.7 -0.3 -390.6 -0.3 -2.4 2.3 -2.3 2.4 -29.7 -0.9 c-16.4 -0.5 -35.4 -0.6 -42.3 -0.2 l-12.5 0.7 0 22.4 0 22.4 3.5 0 c2.8 0 3.5 0.4 3.5 1.9 0 3.1 -5 3.7 -17.6 2z" data-index="1" style="opacity: 1;"></path>
  <path d="M34.4 65.5 c0.3 -0.9 0 -1.5 -0.8 -1.5 -1.6 0 -10.3 -9.2 -14.7 -15.6 l-3 -4.4 3.1 0 c1.6 0 3 0.3 3 0.8 0 0.4 23.7 0.8 52.8 1 l52.7 0.3 3 3.3 c8 8.6 10.3 11.6 8.9 11.6 -0.8 0 -1.4 0.5 -1.4 1 0 0.7 -17 1 -49 1 -47.7 0 -49.1 0.1 -51 2 -2.4 2.4 -4.5 2.6 -3.6 0.5z" data-index="2"></path>
 </g>
 <g fill="#cc1e26">
  <path d="M47.8 136 c-1.2 -1.3 -1.3 -2 -0.5 -2.4 0.9 -0.3 0.9 -0.5 0.1 -0.5 -0.9 -0.1 -0.9 -1.2 -0.3 -3.8 0.4 -2.1 0.8 -12.8 0.7 -23.8 l-0.1 -20 7.4 -0.6 c10.6 -0.9 49 -1.2 51.7 -0.4 1.2 0.4 2.2 1.4 2.2 2.1 0 1.1 -2 1.4 -8.9 1.4 l-9 0 -0.7 4.7 c-0.6 3.9 0 25 0.9 32.8 0.4 4 -25.8 12.4 -34.9 11.1 -2.6 -0.3 -4.4 -0.2 -4.4 0.4 0 1.6 -2.3 1 -4.2 -1z" data-index="3"></path>
  <path d="M37.6 135.5 c0.4 -0.8 1 -1.2 1.5 -0.9 1.4 0.8 1 2.4 -0.6 2.4 -0.9 0 -1.2 -0.6 -0.9 -1.5z" data-index="4"></path>
  <path d="M944.1 77.8 c1.1 -2 3 -2 3.6 -0.1 0.2 0.6 -0.7 1.3 -2.1 1.5 -2.2 0.4 -2.4 0.3 -1.5 -1.4z" data-index="5"></path>
  <path d="M949 76.9 c0 -0.6 0.9 -0.9 1.9 -0.6 1.3 0.3 2.1 -0.1 2.4 -1.4 0.4 -1.6 -0.1 -1.9 -2.6 -2 -1.8 0 -168.8 0 -371.2 0 -202.4 0.1 -407.7 0.1 -456.3 0.1 l-88.3 0 -0.9 2.2 c-0.7 1.7 -0.9 0.7 -0.5 -3.7 0.7 -10.5 1.3 -11.5 6.8 -11.5 2.1 0 2.7 0.5 2.7 2.1 0 2 0.4 2.1 4.6 1.5 2.6 -0.3 22.6 -0.6 44.5 -0.6 34.8 0 39.9 -0.2 39.9 -1.5 0 -0.8 0.6 -1.5 1.4 -1.5 0.7 0 1.6 -1 1.9 -2.2 l0.6 -2.1 1.9 2.3 c1.1 1.4 1.7 3 1.5 3.7 -0.4 1.1 10.8 1.3 57.8 1.3 32.1 0 204.1 0.1 382.1 0.1 178 0 324.2 -0.2 324.8 -0.6 0.5 -0.3 8.6 -0.1 17.9 0.4 12.5 0.8 21.3 2 33.3 4.6 17.5 3.8 19.3 4.3 18.6 5 -0.5 0.5 -22.4 5.5 -24 5.5 -0.4 0 -0.8 -0.5 -0.8 -1.1z" data-index="6" style="opacity: 1;"></path>
  <path d="M18.2 47.2 c-4 -6.3 -5.7 -10 -4.8 -11 0.4 -0.4 23.9 -0.7 52.2 -0.7 l51.4 0 7.2 7.4 c4 4 6.8 7.1 6.3 6.8 -0.6 -0.3 -24.8 -0.7 -53.9 -0.8 -48.2 -0.2 -53 -0.1 -54.1 1.4 -1 1.5 -1.6 1.1 -4.3 -3.1z" data-index="7"></path>
 </g>
 <g fill="#b71d25">
  <path d="M80.7 130.4 c-1.1 -1.2 0.3 -2.4 2.9 -2.4 2.7 0 3.2 1.5 0.8 2.4 -2 0.8 -2.9 0.8 -3.7 0z" data-index="8"></path>
  <path d="M87 127 c-1.1 -0.7 -1.2 -1.4 -0.4 -2.7 0.7 -1.2 0.8 -7.2 0.5 -17.3 -0.4 -8.9 -0.2 -16.8 0.4 -18.7 l0.9 -3.1 12.1 -0.4 c6.6 -0.2 13.8 -0.2 16 0 l4 0.4 0.1 10 0.1 10.1 -4.6 4.5 c-4.8 4.6 -24.6 18.2 -26.5 18.2 -0.6 0 -1.8 -0.5 -2.6 -1z" data-index="9"></path>
  <path d="M969 72 c-1.2 -0.8 -1 -1 1 -0.9 1.4 0 3.4 0.4 4.5 0.9 1.7 0.7 1.6 0.9 -1 0.9 -1.6 0 -3.7 -0.4 -4.5 -0.9z" data-index="10"></path>
  <path d="M940.5 67.4 c-10.2 -0.9 -30.1 -1.3 -62.5 -1.2 -26.1 0 -226.1 0.1 -444.5 0.2 -218.3 0.1 -397.8 0.5 -398.8 1 -1.6 0.8 -1.7 0.6 -0.5 -1.9 2.5 -5.5 2.6 -5.5 54.2 -5.5 37 0 47.5 -0.3 47.9 -1.2 0.3 -1 0.7 -1 1.9 -0.1 1.2 1 83.3 1.4 394.9 1.6 l393.4 0.3 17 4.1 c18.7 4.6 18.6 4.6 -3 2.7z" data-index="11"></path>
  <path d="M13.2 38.5 c-0.7 -1.4 -1.5 -4.4 -1.8 -6.5 -0.6 -3.9 -0.6 -4 2.2 -4 1.6 0 23.4 -0.2 48.4 -0.3 l45.5 -0.3 6 5.1 c3.3 2.8 5.9 5.6 5.7 6.1 -0.2 0.5 -1.7 0.7 -3.5 0.4 -1.8 -0.3 -24.6 -0.5 -50.8 -0.5 -36.4 0 -47.9 0.3 -49.1 1.2 -1.2 1.1 -1.7 0.9 -2.6 -1.2z" data-index="12"></path>
 </g>
 <g fill="#a41e26">
  <path d="M115.2 108.4 c-1.2 -1.3 -1.1 -1.9 0.4 -4.2 1.2 -1.9 1.7 -4.3 1.5 -8.9 -0.4 -10.4 -0.5 -10.3 10.4 -10.3 5.2 0 9.6 0.4 9.9 0.9 0.6 0.9 -11.2 14.8 -17.5 20.8 -3 2.7 -3.6 2.9 -4.7 1.7z" data-index="13"></path>
  <path d="M921 62.1 c-2 -0.4 -3 -0.9 -2.4 -1.4 1.1 -0.7 11.2 0.8 12.2 1.8 0.7 0.7 -5.3 0.4 -9.8 -0.4z" data-index="14"></path>
  <path d="M39.6 61 c1.1 -1.1 -11.9 -1.1 488.4 -0.9 214.2 0.2 384.3 0.6 378 0.9 -18.6 1.2 -867.6 1.2 -866.4 0z" data-index="15" style="opacity: 1;"></path>
  <path d="M11.2 27.8 c0.9 -10.5 8.3 -16.3 24.8 -19.4 10 -1.9 26 -1.4 35.5 1.1 11.5 3.1 35.7 16.2 40.4 21.9 1.6 1.9 1.2 2 -2.6 0.5 -4.1 -1.7 -95.1 -1.3 -97.1 0.4 -1.3 1 -1.4 0.4 -1 -4.5z" data-index="16"></path>
 </g>
</svg>