<svg version="1.0" xmlns="http://www.w3.org/2000/svg" width="30px" height="53px" viewBox="0 0 30 53" preserveAspectRatio="xMidYMid meet">
 <g fill="#fdfcfd">
  
 </g>
 <g fill="#e4dadb">
  <path d="M2.8 50.2 c-3.5 -0.7 -1.7 -3.9 7.7 -13.2 5.2 -5.2 9.5 -9.8 9.5 -10.2 0 -0.5 -3.5 -4.3 -7.8 -8.6 -4.3 -4.2 -8.7 -9 -9.7 -10.5 -1.6 -2.5 -1.6 -3 -0.3 -4.3 1.3 -1.4 1.8 -1.2 4.6 1.1 1.8 1.5 3.2 2.3 3.2 1.9 0 -0.4 0.9 0.1 2 1.1 1.1 1 1.7 2.2 1.3 2.8 -0.3 0.5 -0.2 0.7 0.4 0.4 1.3 -0.8 8.6 6.7 7.6 7.8 -0.5 0.4 -0.3 0.5 0.3 0.2 0.6 -0.3 2.7 1.1 4.7 3.1 l3.7 3.8 -12.5 12.4 c-6.9 6.9 -12.7 12.5 -12.8 12.6 -0.1 0 -1 -0.1 -1.9 -0.4z" data-index="1"></path>
 </g>
 <g fill="#d1aeb3">
  <path d="M2.8 50.3 c-3.5 -0.8 -1.7 -4 7.7 -13.3 5.2 -5.2 9.5 -9.8 9.5 -10.2 0 -0.5 -3.5 -4.3 -7.8 -8.6 -9.8 -9.7 -11.9 -12.7 -10.2 -14.7 1.8 -2.1 3.4 -1 16.2 11.4 l11.2 10.9 -4.4 4.9 c-9.7 10.4 -20.5 19.9 -22.2 19.6z" data-index="2"></path>
 </g>
 <g fill="#e1919a">
 </g>
 <g fill="#c95264">
 </g>
 <g fill="#d81e37">
  <path d="M2.8 50.3 c-3.5 -0.8 -1.7 -4 7.7 -13.3 5.2 -5.2 9.5 -9.8 9.5 -10.3 0 -0.4 -3.9 -4.9 -8.7 -9.8 -10.2 -10.5 -10.9 -11.5 -9.3 -13.4 1.8 -2.1 3.5 -0.9 16.2 11.4 l11.2 10.9 -4.4 4.9 c-9.7 10.4 -20.5 19.9 -22.2 19.6z" data-index="3" style="opacity: 1;"></path>
 </g>
</svg>