<?xml version="1.0" encoding="utf-8"?>
<!DOCTYPE svg PUBLIC "-//W3C//DTD SVG 1.0//EN" "http://www.w3.org/TR/2001/REC-SVG-20010904/DTD/svg10.dtd">
<svg version="1.0" xmlns="http://www.w3.org/2000/svg" width="330px" height="319px" viewBox="0 0 330 319" preserveAspectRatio="xMidYMid meet">
 <g fill="#ff0000">
  <path d="M134.5 317.4 c-2.2 -0.2 -10.7 -0.8 -19 -1.5 -12.3 -0.9 -15.7 -1.4 -18.7 -3.2 -13.4 -8 -67.2 -58.8 -85 -80.3 -8.4 -10.2 -7.8 -8 -9.8 -33.4 -1.4 -16.3 -1.4 -61.9 0 -79 1.8 -24 1.7 -23.5 7.2 -30.3 16 -20 46.3 -50 72.3 -71.8 16.5 -13.7 16.3 -13.6 29 -14.9 18 -1.8 72.3 -2.4 93.3 -1 26.1 1.7 27.1 1.9 33.8 7.1 12.6 9.7 35.6 30.2 49.9 44.4 14.9 14.8 35.3 37.4 37.4 41.4 2.1 3.9 4.1 35.1 4.1 63.6 0.1 35.3 -1.8 61.8 -4.7 66.3 -5.4 8.6 -44.8 49.2 -63.3 65.4 -13.1 11.4 -25.9 21.7 -28.8 23.2 -4.5 2.3 -26.1 3.7 -60.7 4.1 -18.1 0.1 -34.8 0.1 -37 -0.1z m55.5 -23.5 c30 -1.6 30.5 -1.7 39.7 -8.7 25.7 -19.6 70 -64.5 72.2 -73.2 2.8 -10.8 4 -61.1 2.1 -86 -1.6 -21.8 -1.4 -21 -8.7 -29.7 -9 -10.7 -42.8 -44.2 -53.8 -53.4 -18.8 -15.7 -18.9 -15.7 -30.6 -17.1 -13.9 -1.6 -78 -1.6 -91.9 0 -8 0.9 -11.3 1.8 -14.1 3.6 -5.6 3.7 -23 18.6 -36.8 31.5 -12.7 11.8 -37.2 38.6 -39.6 43.1 -5.2 10.1 -5 100.5 0.3 110.7 2.6 5 17.5 21.4 34.4 37.9 15.3 14.9 39 35.4 43.9 37.9 1.4 0.8 9 1.9 17 2.5 28.1 2.1 41.1 2.3 65.9 0.9z"/>
  <path d="M137.6 276.9 c-5.4 -0.4 -10.1 -1.1 -10.5 -1.4 -0.3 -0.4 -0.6 -37.1 -0.6 -81.6 0 -44.5 -0.2 -80.9 -0.5 -80.9 -0.3 0.1 -7.4 17.5 -15.9 38.8 -8.4 21.3 -16.1 40.5 -17.1 42.7 l-1.7 4 -11.9 -23.5 -11.9 -23.5 -0.3 10.5 c-0.1 5.8 0.6 23.9 1.8 40.4 1.1 16.4 2 30.8 2 32 -0.1 2.3 -1.4 1.1 -17.6 -17.5 l-8.4 -9.7 -1 -9.8 c-2.8 -27.8 -2 -79.7 1.4 -86.1 1.4 -2.7 15.6 -19.3 16.5 -19.3 0.7 0 13.8 24.3 21.5 39.8 2 4 4.1 7 4.6 6.7 0.8 -0.5 4.7 -10.3 29.5 -73.6 l8.9 -22.7 6 -0.6 c3.2 -0.3 10.1 -0.6 15.2 -0.6 l9.4 0 0 118.5 0 118.5 -4.7 -0.1 c-2.7 -0.1 -9.2 -0.5 -14.7 -1z"/>
  <path d="M174 159.5 l0 -118.5 7.3 0 c4 0 13.3 0.5 20.7 1.1 l13.5 1.1 9 7.2 c19.4 15.6 39.8 35.6 56.3 55.1 4.9 5.7 5.1 6.2 5.7 13.5 0.3 4.1 0.8 9.2 1 11.3 l0.5 3.7 -12.4 0 -12.4 0 -0.7 -6.7 c-0.6 -6.2 -1.1 -7.3 -5.3 -12.3 -9.4 -11 -24 -25.6 -38.2 -37.8 l-14.5 -12.4 -0.3 93.7 c-0.1 51.6 0 94 0.3 94.3 1.4 1.4 53.3 -47.7 56.2 -53.3 0.6 -1.1 1.4 -5.3 1.8 -9.2 l0.7 -7.3 -7.5 0 c-9.2 0 -9.2 -0.1 -8.2 -13.6 l0.7 -9.4 19.9 0 19.9 0 0 8.8 c0 4.8 -0.5 15.6 -1.2 24.1 l-1.1 15.3 -9.2 10.2 c-18 19.8 -52.8 52 -60.9 56.3 -2.2 1.2 -25.5 3.3 -36.3 3.3 l-5.3 0 0 -118.5z"/>
 </g>
</svg>