<?xml version="1.0" encoding="utf-8"?>
<!DOCTYPE svg PUBLIC "-//W3C//DTD SVG 1.0//EN" "http://www.w3.org/TR/2001/REC-SVG-20010904/DTD/svg10.dtd">
<svg version="1.0" xmlns="http://www.w3.org/2000/svg" width="582px" height="132px" viewBox="0 0 582 132" preserveAspectRatio="xMidYMid meet">
 <g fill="#cf2f37">
  <path d="M0 131.3 c0 -0.4 1.5 -8.8 3.4 -18.8 1.9 -9.9 5.6 -29.2 8.1 -43 2.5 -13.7 6.1 -33.1 8 -43 1.8 -9.9 3.6 -19.9 4 -22.2 l0.7 -4.3 5.9 0 c5.7 0 5.9 0.1 5.4 2.3 -0.3 1.2 -2.5 13 -4.9 26.2 -2.5 13.2 -7 37.5 -10.1 54 -3.1 16.5 -6.4 34.3 -7.4 39.5 l-1.7 9.5 -5.7 0.3 c-3.1 0.2 -5.7 0 -5.7 -0.5z"/>
  <path d="M32 131.4 c0 -0.8 11.9 -65 17 -91.4 1.6 -8.5 4 -21 5.2 -27.7 l2.2 -12.3 11.9 0 c11.9 0 11.9 0 11.4 2.3 -1 3.9 -14.7 76.6 -21.6 114.7 l-2.7 14.5 -11.7 0.3 c-6.4 0.1 -11.7 -0.1 -11.7 -0.4z"/>
  <path d="M76 131.8 c0 -0.5 9.6 -52.6 17.1 -92.5 l7.4 -39.3 11.8 0 c11.9 0 11.9 0 11.4 2.3 -0.6 2.3 -17.2 90.4 -20.9 110.7 -1.1 6.3 -2.3 13.1 -2.7 15 l-0.6 3.5 -11.8 0.3 c-6.4 0.1 -11.7 0.1 -11.7 0z"/>
  <path d="M120.3 130.3 c1 -3.3 3.6 -16.8 5.7 -29.3 1.2 -6.9 2.8 -15.6 3.5 -19.5 2.2 -11.4 6.3 -33.5 10.9 -58 l4.3 -23 218.6 -0.3 218.7 -0.2 0 66 0 66 -231.1 0 c-219.5 0 -231 -0.1 -230.6 -1.7z m237.4 -58.5 c-0.2 -3.5 -0.3 -0.9 -0.3 5.7 0 6.6 0.1 9.4 0.3 6.3 0.2 -3.2 0.2 -8.6 0 -12z m35 -1 c-0.2 -3.5 -0.3 -0.7 -0.3 6.2 0 6.9 0.1 9.7 0.3 6.3 0.2 -3.5 0.2 -9.1 0 -12.5z m30 0 c-0.2 -3.5 -0.3 -0.7 -0.3 6.2 0 6.9 0.1 9.7 0.3 6.3 0.2 -3.5 0.2 -9.1 0 -12.5z m-50 2 c-0.2 -2.4 -0.4 -0.5 -0.4 4.2 0 4.7 0.2 6.6 0.4 4.3 0.2 -2.4 0.2 -6.2 0 -8.5z m37.4 1.7 c-0.9 -4.8 -2 -8.6 -2.6 -8.6 -0.5 0 -1.7 3.9 -2.5 8.6 l-1.7 8.5 4.2 0 4.2 0 -1.6 -8.5z m-26.4 -0.2 c-0.2 -1.6 -0.4 -0.3 -0.4 2.7 0 3 0.2 4.3 0.4 2.8 0.2 -1.6 0.2 -4 0 -5.5z m-168.7 -28 l-0.1 -4.8 -1.9 3.5 c-2.5 4.5 -2.5 6 0 6 1.7 0 2 -0.7 2 -4.7z"/>
 </g>
 <g fill="#fffbfc">
  <path d="M291 63 c0 -43.8 0.2 -50 1.5 -50 1.3 0 1.5 6.2 1.5 50 0 43.8 -0.2 50 -1.5 50 -1.3 0 -1.5 -6.2 -1.5 -50z"/>
  <path d="M203.2 88.7 c-2.8 -2.3 -6.8 -6.3 -9 -8.8 -3.8 -4.2 -4 -4.8 -4.3 -11.9 -0.7 -17.4 -0.8 -17.3 7.4 -25.7 3.9 -4.2 8.6 -8.2 10.4 -8.9 4.3 -1.9 20.3 -1.8 24.6 0 1.8 0.8 6.3 4.6 10.1 8.4 6.7 6.9 7 7.3 7.7 13.4 0.5 3.5 0.5 9.5 0.2 13.3 -0.6 6.3 -1 7.4 -4.5 11.5 -2.2 2.4 -6.2 6.4 -9 8.7 l-5 4.3 -11.8 0 -11.8 0 -5 -4.3z m36.3 -6.7 l8 -8 0 -10.9 0 -10.8 -3.9 -4.7 c-2.1 -2.6 -6.1 -6.5 -8.8 -8.7 l-5 -3.9 -10.3 0 -10.4 0 -8 7.8 -7.9 7.7 -0.7 6.7 c-0.4 3.6 -0.4 9 0 12 0.6 4.9 1.2 5.8 8.3 13.1 l7.7 7.7 11.5 0 11.5 0 8 -8z"/>
  <path d="M212 70.3 c-0.1 -15.1 -0.2 -16.6 -1.5 -14.8 -0.9 1 -2.3 4.3 -3.2 7.2 -0.9 2.9 -2 5.3 -2.5 5.3 -0.4 0 -1.4 -1.3 -2.3 -3 -0.9 -1.6 -1.8 -3 -2.2 -3 -0.3 0 -0.3 3.4 0 7.5 0.7 7.7 0.2 8.8 -2.6 5.7 -2.6 -2.8 -2.5 -22.2 0.1 -24.6 1.8 -1.5 2 -1.4 3.8 1.9 2.2 4.2 3 4.4 3.8 0.9 0.4 -1.5 2 -5.5 3.6 -9 2.6 -5.8 3.1 -6.4 5.9 -6.4 l3.1 0 0 24.5 0 24.5 -3 0 -3 0 0 -16.7z"/>
  <path d="M221.8 62.5 l0.3 -24.5 3.3 0 c2.4 0 4.7 1 7.8 3.6 6.3 5.2 10.7 10.6 10.8 13.2 0 3.3 -3.1 2.8 -5.5 -0.9 -1.1 -1.6 -3.9 -4.6 -6.2 -6.5 l-4.3 -3.5 0 18.5 c0 10.2 0.4 18.6 0.9 18.6 1.4 0 11.1 -10.8 11.1 -12.4 0 -0.9 -0.9 -1.6 -2 -1.6 -1.5 0 -2 -0.7 -2 -2.5 0 -2.2 0.4 -2.5 4 -2.5 l4 0 0 5.8 0 5.8 -6.8 6.7 c-6.3 6.3 -7 6.7 -11.2 6.7 l-4.5 0 0.3 -24.5z"/>
  <path d="M354 76.9 l0 -15 3.3 0.3 3.2 0.3 0.3 12.3 0.3 12.2 2.9 0 c2.5 0 3 0.4 3 2.5 0 2.4 -0.2 2.5 -6.5 2.5 l-6.5 0 0 -15.1z"/>
  <path d="M371.2 90 c-2 -1.9 -2.2 -3.1 -2.2 -13 0 -10.5 0.1 -10.9 2.6 -12.9 3 -2.4 9 -2.7 11.6 -0.7 2.6 2 3.8 6.1 3.8 13.5 0 7.8 -1.4 12.7 -4 14.1 -3.2 1.7 -9.4 1.2 -11.8 -1z m8.2 -4.6 c0.9 -2.4 0.7 -15.7 -0.3 -17.3 -2 -3.1 -3.1 0.3 -3.1 9.5 0 7.4 0.3 9.4 1.4 9.4 0.8 0 1.7 -0.7 2 -1.6z"/>
  <path d="M389 77 l0 -15 3.5 0 3.5 0 0 15 0 15 -3.5 0 -3.5 0 0 -15z"/>
  <path d="M398.6 89.3 c0.3 -1.6 1.5 -8.2 2.8 -14.8 l2.3 -12 3.8 0 3.9 0 2.3 12 c1.2 6.6 2.4 13.3 2.7 14.8 0.5 2.7 0.4 2.8 -2.7 2.5 -2.7 -0.2 -3.3 -0.8 -3.5 -3.1 -0.3 -2.3 -0.8 -2.8 -2.5 -2.5 -1.6 0.2 -2.3 1.1 -2.5 3.1 -0.3 2.4 -0.8 2.7 -3.7 2.7 -3.2 0 -3.4 -0.2 -2.9 -2.7z"/>
  <path d="M419 77 l0 -15 3.5 0 3.5 0 0 12.5 0 12.5 3 0 c2.5 0 3 0.4 3 2.5 0 2.4 -0.2 2.5 -6.5 2.5 l-6.5 0 0 -15z"/>
  <path d="M436 80 l0 -12 -2.5 0 c-2.1 0 -2.5 -0.5 -2.5 -3 l0 -3 8 0 8 0 0 3 c0 2.5 -0.4 3 -2.5 3 l-2.5 0 0 12 0 12 -3 0 -3 0 0 -12z"/>
  <path d="M474.8 87.1 c0.4 -4.7 0.2 -5.5 -2.4 -8.2 -5.1 -5.4 -14.1 -3.3 -16.4 3.7 -0.7 2 -1.4 3.3 -1.7 3.1 -0.9 -1 2.6 -7.5 5.2 -9.5 7.4 -5.8 18.5 0.6 18.5 10.6 l0 3 17.6 -0.3 c9.6 -0.2 18.3 -0.7 19.4 -1 1.5 -0.5 2 -2 2.5 -8 0.4 -4 0.4 -7.9 0 -8.5 -0.4 -0.7 -2.1 -0.9 -4.4 -0.5 -2.9 0.5 -4.9 -0.1 -10.1 -2.7 -8.3 -4.3 -8.8 -5.8 -1.8 -5.8 2.9 0 6.8 0.4 8.6 0.9 4.3 1.3 4.1 0.5 -0.5 -1.4 -6.4 -2.7 -15.2 -4.4 -28.4 -5.3 l-12.5 -0.9 -11.5 -6.2 c-26.2 -14.2 -28 -14.6 -66.9 -13.9 -27.6 0.5 -27.6 -0.3 -0.1 -2.2 20 -1.5 38.2 -0.9 46.1 1.5 3 1 11.8 5.3 19.5 9.7 l14 8.1 12 1.3 c13.5 1.5 29.4 6.1 34 9.9 3.8 3 3 3.8 -2 2 -2.2 -0.8 -5.8 -1.4 -8 -1.5 l-4 0 3.5 2.2 c1.9 1.2 5.3 2.2 7.5 2.3 2.2 0.1 4.6 0.3 5.3 0.3 1 0.2 1.2 2.4 1 9.4 -0.3 9.2 -0.4 9.3 -3.3 10.7 -2.2 1.1 -8.1 1.6 -22.1 1.9 l-19.1 0.4 0.5 -5.1z"/>
  <path d="M338.9 86.7 c-3.2 -2.2 -3.4 -2.6 -4 -9.7 -0.4 -6.1 -0.2 -8.1 1.3 -10.6 1.1 -1.9 1.8 -5.1 1.8 -8.2 l0 -5.1 7.3 -5.7 c3.9 -3.1 7.8 -6.4 8.4 -7.2 0.7 -0.9 1.5 -1.3 1.9 -1 0.5 0.6 -5.5 6.6 -12.3 12.3 -3 2.4 -3.3 3.2 -3.3 7.9 0 2.8 -0.6 6 -1.4 7.1 -0.7 1.1 -1.6 5 -1.8 8.7 -0.6 7.7 0.5 10.2 5.6 12.4 1.7 0.7 2.4 1.3 1.5 1.4 -0.9 0 -3.1 -1 -5 -2.3z"/>
 </g>
</svg>